<?xml version="1.0" encoding="utf-8"?>
<!-- Generator: Adobe Illustrator 23.1.0, SVG Export Plug-In . SVG Version: 6.00 Build 0)  -->
<svg version="1.1" id="Слой_1" xmlns="http://www.w3.org/2000/svg" xmlns:xlink="http://www.w3.org/1999/xlink" x="0px" y="0px"
	 viewBox="0 0 96.9 97" style="enable-background:new 0 0 96.9 97;" xml:space="preserve">
<style type="text/css">
	.st0{fill:#F5DFE1;}
	.st1{fill:#BB2636;}
</style>
<g>
	<circle id="Ellipse_13" class="st0" cx="47.8" cy="48.8" r="41.5"/>
	<g id="круг" transform="translate(1245.471 1485.423) rotate(-120)">
		<path id="Path_9" class="st1" d="M1799.1-335.1c-0.6,0-1.1-0.5-1.1-1.1c0-0.1,0-0.3,0.1-0.4c10.2-24.8,38.5-36.6,63.3-26.4
			c5.9,2.4,11.3,6,15.8,10.6c0.4,0.4,0.3,1.1-0.1,1.5c-0.4,0.4-1,0.4-1.4,0c-18.1-18.1-47.5-18.1-65.6,0c-4.3,4.3-7.8,9.5-10.1,15.1
			C1799.9-335.4,1799.5-335.1,1799.1-335.1z"/>
		<path id="Path_10" class="st1" d="M1842.9-269.7c-26.8,0-48.5-21.7-48.5-48.5c0,0,0,0,0,0c0-3.8,0.4-7.5,1.3-11.2
			c0.1-0.6,0.7-0.9,1.3-0.8c0.6,0.1,0.9,0.7,0.8,1.3c-5.9,24.9,9.6,49.9,34.5,55.8c3.5,0.8,7,1.2,10.6,1.2c6.7,0,13.2-1.4,19.3-4.2
			c0.5-0.2,1.2,0,1.4,0.5c0.2,0.5,0,1.2-0.5,1.4C1856.8-271.2,1849.9-269.7,1842.9-269.7z"/>
		<path id="Path_11" class="st1" d="M1869.8-278c-0.6,0-1.1-0.5-1.1-1.1c0-0.3,0.2-0.7,0.5-0.9c2.3-1.6,4.5-3.4,6.6-5.4
			c0.4-0.4,1.1-0.3,1.5,0.1c0.4,0.4,0.4,1,0,1.4c-2.1,2.1-4.4,4-6.8,5.7C1870.2-278.1,1870-278,1869.8-278z"/>
		<path id="Path_12" class="st1" d="M1881.3-289.2c-0.6,0-1.1-0.5-1.1-1.1c0-0.2,0.1-0.4,0.2-0.6c11.5-15.8,11.8-37.2,0.8-53.3
			c-0.3-0.5-0.2-1.1,0.3-1.5c0.5-0.3,1.1-0.2,1.5,0.3l0,0c11.5,16.9,11.2,39.2-0.8,55.8C1882-289.4,1881.6-289.2,1881.3-289.2z"/>
	</g>
	<path id="Path_14" class="st1" d="M60.3,49.1H58c-0.6,0-1.1,0.5-1.1,1.1c0,0.6,0.5,1.1,1.1,1.1c0,0,0,0,0,0h2.2
		c0.6,0,1.1-0.5,1.1-1.1C61.4,49.6,60.9,49.1,60.3,49.1L60.3,49.1z"/>
	<path id="Path_16" class="st1" d="M31,39.7h3.4c0.6,0,1.1-0.5,1.1-1.1c0-0.6-0.5-1.1-1.1-1.1c0,0,0,0,0,0H31
		c-0.6,0-1.1,0.5-1.1,1.1C29.9,39.2,30.4,39.7,31,39.7z"/>
	<path class="st1" d="M73.1,45.8h-3.1L68,38.1c-0.1-0.4-0.5-0.7-0.9-0.7H54.4v-4.2c0-0.5-0.4-1-1-1H23.2c-0.5,0-1,0.4-1,1v26.4
		c0,0.5,0.4,0.9,1,0.9h5.9c0.5,3.4,3.6,5.7,7,5.2c2.7-0.4,4.7-2.5,5.2-5.2h16c0.5,3.4,3.6,5.7,7,5.2c2.7-0.4,4.7-2.5,5.2-5.2h3.7
		c0.5,0,1-0.4,1-1v-4.7h0v-8.1C74.1,46.2,73.6,45.8,73.1,45.8z M35.2,63.8C35.2,63.8,35.2,63.8,35.2,63.8c-2.3,0-4.2-1.9-4.2-4.2
		c0-2.3,1.9-4.2,4.2-4.2c2.3,0,4.2,1.9,4.2,4.2C39.4,61.9,37.5,63.8,35.2,63.8z M52.5,58.6H41.3v-0.2c0-0.1,0-0.2-0.1-0.2
		c0-0.1-0.1-0.2-0.1-0.3c0-0.1,0-0.2-0.1-0.2c0-0.1-0.1-0.2-0.1-0.3l-0.1-0.2c-0.1-0.1-0.1-0.2-0.2-0.3l-0.1-0.2
		c-0.1-0.1-0.1-0.2-0.2-0.4l-0.1-0.1c-0.1-0.2-0.2-0.3-0.3-0.5l-0.1-0.1c-0.1-0.1-0.2-0.2-0.3-0.3l-0.1-0.1l-0.3-0.2L39,54.8
		l-0.3-0.2l-0.2-0.1l-0.3-0.2L38,54.1L37.7,54l-0.2-0.1l-0.3-0.1l-0.2-0.1l-0.3-0.1l-0.2-0.1L36,53.5h-1.6L34,53.5l-0.2,0.1
		l-0.3,0.1l-0.2,0.1l-0.3,0.1L32.6,54l-0.3,0.2l-0.2,0.1l-0.3,0.2l-0.2,0.1l-0.3,0.2l-0.2,0.1L31,55.1l-0.1,0.1
		c-0.1,0.1-0.2,0.2-0.3,0.3l-0.1,0.1c-0.1,0.1-0.2,0.3-0.3,0.5L30,56.3c-0.1,0.1-0.1,0.2-0.2,0.4l-0.1,0.2c-0.1,0.1-0.1,0.2-0.2,0.3
		s-0.1,0.1-0.1,0.2c0,0.1-0.1,0.2-0.1,0.3c0,0.1-0.1,0.2-0.1,0.2c0,0.1-0.1,0.2-0.1,0.3c0,0.1,0,0.2-0.1,0.2c0,0.1,0,0.1,0,0.2h-5
		v-2.8h1.5c0.5,0,1-0.4,1-1c0-0.5-0.4-1-1-1h-1.5v-2.7h28.3V58.6z M52.5,37.4H38.4c-0.5,0-1,0.4-1,1c0,0.5,0.4,1,1,1h14.1v9.9H24.2
		V34.2h28.3V37.4z M59.3,39.4h7l1.7,6.4h-8.7V39.4z M63.3,63.8c-2.3,0-4.3-1.9-4.3-4.3c0-2.3,1.9-4.3,4.3-4.3c2.3,0,4.3,1.9,4.3,4.3
		C67.6,61.9,65.6,63.8,63.3,63.8z M72.2,53.9h-1.5c-0.5,0-1,0.4-1,1c0,0.5,0.4,1,1,1h1.5v2.8h-2.8v-0.1c0-0.1,0-0.2-0.1-0.2
		c0-0.1-0.1-0.2-0.1-0.3s0-0.2-0.1-0.2s-0.1-0.2-0.1-0.3c0-0.1-0.1-0.1-0.1-0.2c0-0.1-0.1-0.2-0.2-0.3l-0.1-0.2
		c-0.1-0.1-0.1-0.2-0.2-0.4l-0.1-0.1c-0.1-0.2-0.2-0.3-0.3-0.5L68,55.6c-0.1-0.1-0.2-0.2-0.3-0.3l-0.1-0.1l-0.3-0.2l-0.2-0.1
		l-0.3-0.2l-0.2-0.1l-0.3-0.2l-0.2-0.1L65.8,54l-0.2-0.1l-0.3-0.1L65,53.7l-0.3-0.1l-0.2-0.1l-0.4-0.1h-1.6l-0.4,0.1l-0.2,0.1
		l-0.3,0.1l-0.2,0.1L61,53.9L60.8,54l-0.3,0.1l-0.2,0.1L60,54.4l-0.2,0.1l-0.3,0.2l-0.2,0.1L59,55.1l-0.1,0.1
		c-0.1,0.1-0.2,0.2-0.3,0.3l-0.1,0.1c-0.1,0.1-0.2,0.3-0.3,0.5l-0.1,0.1c-0.1,0.1-0.2,0.2-0.2,0.4l-0.1,0.2
		c-0.1,0.1-0.1,0.2-0.2,0.3c0,0.1-0.1,0.1-0.1,0.2c0,0.1-0.1,0.2-0.1,0.3c0,0.1-0.1,0.2-0.1,0.2c0,0.1-0.1,0.2-0.1,0.3
		c0,0.1,0,0.2-0.1,0.2c0,0.1,0,0.1,0,0.2h-2.8V39.4h3v7.4c0,0.5,0.4,1,1,1h13.8V53.9z"/>
</g>
</svg>
