<svg xmlns="http://www.w3.org/2000/svg" xmlns:xlink="http://www.w3.org/1999/xlink" width="620" height="15.655" viewBox="0 0 620 15.655">
  <defs>
    <clipPath id="clip-path">
      <rect width="620" height="15.655" fill="none"/>
    </clipPath>
  </defs>
  <g id="grid_4" data-name="grid 4" opacity="0.18" clip-path="url(#clip-path)">
    <g transform="translate(-1425 -5030)">
      <path id="Path_139" data-name="Path 139" d="M0,0H13L-8,21.655H-21Z" transform="translate(1446 5030)" fill="#bbbbba"/>
    </g>
    <g transform="translate(-1400 -5030)">
      <path id="Path_139-2" data-name="Path 139" d="M0,0H13L-8,21.655H-21Z" transform="translate(1446 5030)" fill="#bbbbba"/>
    </g>
    <g transform="translate(-1375 -5030)">
      <path id="Path_139-3" data-name="Path 139" d="M0,0H13L-8,21.655H-21Z" transform="translate(1446 5030)" fill="#bbbbba"/>
    </g>
    <g transform="translate(-1350 -5030)">
      <path id="Path_139-4" data-name="Path 139" d="M0,0H13L-8,21.655H-21Z" transform="translate(1446 5030)" fill="#bbbbba"/>
    </g>
    <g transform="translate(-1325 -5030)">
      <path id="Path_139-5" data-name="Path 139" d="M0,0H13L-8,21.655H-21Z" transform="translate(1446 5030)" fill="#bbbbba"/>
    </g>
    <g transform="translate(-1300 -5030)">
      <path id="Path_139-6" data-name="Path 139" d="M0,0H13L-8,21.655H-21Z" transform="translate(1446 5030)" fill="#bbbbba"/>
    </g>
    <g transform="translate(-1275 -5030)">
      <path id="Path_139-7" data-name="Path 139" d="M0,0H13L-8,21.655H-21Z" transform="translate(1446 5030)" fill="#bbbbba"/>
    </g>
    <g transform="translate(-1250 -5030)">
      <path id="Path_139-8" data-name="Path 139" d="M0,0H13L-8,21.655H-21Z" transform="translate(1446 5030)" fill="#bbbbba"/>
    </g>
    <g transform="translate(-1225 -5030)">
      <path id="Path_139-9" data-name="Path 139" d="M0,0H13L-8,21.655H-21Z" transform="translate(1446 5030)" fill="#bbbbba"/>
    </g>
    <g transform="translate(-1200 -5030)">
      <path id="Path_139-10" data-name="Path 139" d="M0,0H13L-8,21.655H-21Z" transform="translate(1446 5030)" fill="#bbbbba"/>
    </g>
    <g transform="translate(-1175 -5030)">
      <path id="Path_139-11" data-name="Path 139" d="M0,0H13L-8,21.655H-21Z" transform="translate(1446 5030)" fill="#bbbbba"/>
    </g>
    <g transform="translate(-1150 -5030)">
      <path id="Path_139-12" data-name="Path 139" d="M0,0H13L-8,21.655H-21Z" transform="translate(1446 5030)" fill="#bbbbba"/>
    </g>
    <g transform="translate(-1125 -5030)">
      <path id="Path_139-13" data-name="Path 139" d="M0,0H13L-8,21.655H-21Z" transform="translate(1446 5030)" fill="#bbbbba"/>
    </g>
    <g transform="translate(-1100 -5030)">
      <path id="Path_139-14" data-name="Path 139" d="M0,0H13L-8,21.655H-21Z" transform="translate(1446 5030)" fill="#bbbbba"/>
    </g>
    <g transform="translate(-1075 -5030)">
      <path id="Path_139-15" data-name="Path 139" d="M0,0H13L-8,21.655H-21Z" transform="translate(1446 5030)" fill="#bbbbba"/>
    </g>
    <g transform="translate(-1050 -5030)">
      <path id="Path_139-16" data-name="Path 139" d="M0,0H13L-8,21.655H-21Z" transform="translate(1446 5030)" fill="#bbbbba"/>
    </g>
    <g transform="translate(-1025 -5030)">
      <path id="Path_139-17" data-name="Path 139" d="M0,0H13L-8,21.655H-21Z" transform="translate(1446 5030)" fill="#bbbbba"/>
    </g>
    <g transform="translate(-1000 -5030)">
      <path id="Path_139-18" data-name="Path 139" d="M0,0H13L-8,21.655H-21Z" transform="translate(1446 5030)" fill="#bbbbba"/>
    </g>
    <g transform="translate(-975 -5030)">
      <path id="Path_139-19" data-name="Path 139" d="M0,0H13L-8,21.655H-21Z" transform="translate(1446 5030)" fill="#bbbbba"/>
    </g>
    <g transform="translate(-950 -5030)">
      <path id="Path_139-20" data-name="Path 139" d="M0,0H13L-8,21.655H-21Z" transform="translate(1446 5030)" fill="#bbbbba"/>
    </g>
    <g transform="translate(-925 -5030)">
      <path id="Path_139-21" data-name="Path 139" d="M0,0H13L-8,21.655H-21Z" transform="translate(1446 5030)" fill="#bbbbba"/>
    </g>
    <g transform="translate(-900 -5030)">
      <path id="Path_139-22" data-name="Path 139" d="M0,0H13L-8,21.655H-21Z" transform="translate(1446 5030)" fill="#bbbbba"/>
    </g>
    <g transform="translate(-875 -5030)">
      <path id="Path_139-23" data-name="Path 139" d="M0,0H13L-8,21.655H-21Z" transform="translate(1446 5030)" fill="#bbbbba"/>
    </g>
    <g transform="translate(-850 -5030)">
      <path id="Path_139-24" data-name="Path 139" d="M0,0H13L-8,21.655H-21Z" transform="translate(1446 5030)" fill="#bbbbba"/>
    </g>
    <g transform="translate(-825 -5030)">
      <path id="Path_139-25" data-name="Path 139" d="M0,0H13L-8,21.655H-21Z" transform="translate(1446 5030)" fill="#bbbbba"/>
    </g>
  </g>
</svg>
