<svg xmlns="http://www.w3.org/2000/svg" width="80" height="240" viewBox="0 0 80 240">
  <g id="_1" data-name="1" transform="translate(-254 -3246)">
    <path id="Path_79" data-name="Path 79" d="M293.2,3190.888v191.587" transform="translate(0 60)" fill="none" stroke="rgba(187,38,54,0.35)" stroke-width="2" stroke-dasharray="2 2"/>
    <circle id="Ellipse_19" data-name="Ellipse 19" cx="40" cy="40" r="40" transform="translate(254 3406)" fill="#f5dfe1"/>
    <g id="calendar-page-empty" transform="translate(263.725 3433)">
      <path id="Path_80" data-name="Path 80" d="M41.976,4.285a1.792,1.792,0,0,0-1.312-.554H38.8v-1.4A2.246,2.246,0,0,0,38.113.685,2.246,2.246,0,0,0,36.466,0h-.933a2.246,2.246,0,0,0-1.647.685A2.245,2.245,0,0,0,33.2,2.332v1.4H27.6v-1.4A2.246,2.246,0,0,0,26.919.685,2.245,2.245,0,0,0,25.272,0H24.34a2.246,2.246,0,0,0-1.647.685,2.246,2.246,0,0,0-.685,1.647v1.4H20.142a1.793,1.793,0,0,0-1.312.554A1.793,1.793,0,0,0,18.276,5.6V24.254a1.892,1.892,0,0,0,1.866,1.866H40.664a1.892,1.892,0,0,0,1.866-1.866V5.6A1.793,1.793,0,0,0,41.976,4.285ZM35.067,2.332a.448.448,0,0,1,.466-.466h.933a.449.449,0,0,1,.466.466v4.2A.449.449,0,0,1,36.466,7h-.933a.448.448,0,0,1-.466-.466Zm-11.194,0a.449.449,0,0,1,.466-.466h.933a.449.449,0,0,1,.466.466v4.2A.449.449,0,0,1,25.272,7H24.34a.449.449,0,0,1-.466-.466ZM40.664,24.254H20.142V9.328H40.664Z" fill="#bb2636"/>
    </g>
    <g id="Ellipse_21" data-name="Ellipse 21" transform="translate(289 3246)" fill="#fff" stroke="#bb2636" stroke-width="1">
      <circle cx="4" cy="4" r="4" stroke="none"/>
      <circle cx="4" cy="4" r="3.5" fill="none"/>
    </g>
  </g>
</svg>
