<svg xmlns="http://www.w3.org/2000/svg" width="101" height="375" viewBox="0 0 101 375">
  <g id="_5" data-name="5" transform="translate(-1564 -3201)">
    <path id="Path_95" data-name="Path 95" d="M1026.12,3205h57v304.285" transform="translate(541.879)" fill="none" stroke="rgba(187,38,54,0.35)" stroke-width="2" stroke-dasharray="2 2"/>
    <g id="Ellipse_29" data-name="Ellipse 29" transform="translate(1564 3201)" fill="#fff" stroke="#bb2636" stroke-width="1">
      <circle cx="4" cy="4" r="4" stroke="none"/>
      <circle cx="4" cy="4" r="3.5" fill="none"/>
    </g>
    <circle id="Ellipse_30" data-name="Ellipse 30" cx="40" cy="40" r="40" transform="translate(1585 3256)" fill="#f5dfe1"/>
    <circle id="Ellipse_31" data-name="Ellipse 31" cx="40" cy="40" r="40" transform="translate(1585 3376)" fill="#f5dfe1"/>
    <circle id="Ellipse_32" data-name="Ellipse 32" cx="40" cy="40" r="40" transform="translate(1585 3496)" fill="#f5dfe1"/>
    <g id="worker" transform="translate(1564.385 3277.419)">
      <g id="Group_97" data-name="Group 97" transform="translate(67.434 30.651)">
        <g id="Group_96" data-name="Group 96">
          <path id="Path_96" data-name="Path 96" d="M346.714,429a.714.714,0,1,0,.714.714A.715.715,0,0,0,346.714,429Z" transform="translate(-346 -429)" fill="#bb2636"/>
        </g>
      </g>
      <g id="Group_99" data-name="Group 99" transform="translate(53.145 30.651)">
        <g id="Group_98" data-name="Group 98">
          <path id="Path_97" data-name="Path 97" d="M146.714,429a.714.714,0,1,0,.714.714A.715.715,0,0,0,146.714,429Z" transform="translate(-146 -429)" fill="#bb2636"/>
        </g>
      </g>
      <g id="Group_101" data-name="Group 101" transform="translate(46)">
        <g id="Group_100" data-name="Group 100">
          <path id="Path_98" data-name="Path 98" d="M74.7,26.951a8.074,8.074,0,0,0-3.2-2.873.711.711,0,0,0-.406-.187,7.474,7.474,0,0,0-2.938-.6H66.005V21.407a8.2,8.2,0,0,0,2.565-4.045h.293a2.856,2.856,0,0,0,2.1-4.795c.045-.038.089-.078.131-.12A2.143,2.143,0,0,0,70.268,8.9,7.886,7.886,0,0,0,64.535,1.93,2.273,2.273,0,0,0,62.433,0H59.575a2.273,2.273,0,0,0-2.1,1.93A7.886,7.886,0,0,0,51.74,8.9a2.142,2.142,0,0,0-.694,3.665,2.856,2.856,0,0,0,2.1,4.8h.291a8.213,8.213,0,0,0,2,3.51c.179.187.37.365.566.534v1.886H53.859a7.475,7.475,0,0,0-2.938.6.711.711,0,0,0-.406.187A8.186,8.186,0,0,0,46,31.366v4.5a.715.715,0,0,0,.714.714H75.294a.715.715,0,0,0,.714-.714v-4.5A8.123,8.123,0,0,0,74.7,26.951Zm-24.41,8.2H47.429V31.366a6.825,6.825,0,0,1,2.858-5.493Zm18.576-19.22h-.033c.021-.238.033-.476.033-.714V13.075a1.429,1.429,0,1,1,0,2.858ZM57.432,3.439V6.645a.714.714,0,0,0,1.429,0V2.358c0-.443.374-.929.714-.929h2.858c.341,0,.714.486.714.929V6.645a.714.714,0,0,0,1.429,0V3.439a6.459,6.459,0,0,1,4.247,5.349H53.185A6.459,6.459,0,0,1,57.432,3.439ZM53.145,15.933a1.429,1.429,0,1,1,0-2.858v2.143c0,.238.011.477.033.714Zm0-4.287H52.43a.714.714,0,0,1,0-1.429H69.578a.714.714,0,0,1,0,1.429H53.145ZM54.7,16.518c0-.008,0-.016,0-.023a6.59,6.59,0,0,1-.125-1.276V13.075H67.434v2.143a6.593,6.593,0,0,1-.125,1.276c0,.008,0,.016,0,.023a6.768,6.768,0,0,1-2.49,4.018,6.134,6.134,0,0,1-7.623,0,6.621,6.621,0,0,1-.725-.652A6.775,6.775,0,0,1,54.7,16.518ZM60.29,35.152H54.574V33.509a.714.714,0,1,0-1.429,0v1.643H51.716V25.112a6.047,6.047,0,0,1,1.429-.349v4.459a.714.714,0,1,0,1.429,0v-4.5h1.837l3.879,4.073ZM57.432,23.721V22.39a7.525,7.525,0,0,0,7.145,0v1.331L61,27.472ZM70.292,35.152H68.863V33.509a.714.714,0,1,0-1.429,0v1.643H61.719V28.794L65.6,24.721h1.837v4.5a.714.714,0,1,0,1.429,0V24.763a6.048,6.048,0,0,1,1.429.349Zm4.287,0H71.721v-9.28a6.826,6.826,0,0,1,2.858,5.493Z" transform="translate(-46 0)" fill="#bb2636"/>
        </g>
      </g>
    </g>
    <path id="secretary" d="M37.4,29.144l-.122-.122a6.812,6.812,0,0,0-3.843-6.039l-1.952-.915.244-.122a2.977,2.977,0,0,0,1.342-4.087l-.671-1.4-.549-6.1A9.062,9.062,0,0,0,22.761,2h-.183a9.077,9.077,0,0,0-9.15,8.357l-.549,6.1-.671,1.4a3.08,3.08,0,0,0,1.342,4.087l.244.122-1.952.915A6.765,6.765,0,0,0,8,29.083V38.6H31.179a2.764,2.764,0,0,0,2.257-.732l4.819-4.819A1.846,1.846,0,0,0,38.5,30.73ZM13.185,19.811a1.615,1.615,0,0,1,.122-1.4l.793-1.586.549-6.344A7.858,7.858,0,0,1,22.517,3.22H22.7a7.915,7.915,0,0,1,7.93,7.259l.549,6.344.793,1.586a1.859,1.859,0,0,1-.793,2.44l-1.1.549-2.745-1.281A6.785,6.785,0,0,0,29.349,15.3v-3.66A1.9,1.9,0,0,0,27.7,9.808l-2.257-.244a2.45,2.45,0,0,1-2.2-2.44V6.27h-1.22v.915a2.45,2.45,0,0,1-2.2,2.44l-2.257.244A1.805,1.805,0,0,0,15.93,11.7v3.66a6.785,6.785,0,0,0,2.013,4.819L15.2,21.458l-1.1-.61a2.153,2.153,0,0,1-.915-1.037Zm11.894.427-.549.244a4.264,4.264,0,0,1-3.843,0l-.488-.244a5.393,5.393,0,0,1-3.05-4.88V11.7a.649.649,0,0,1,.549-.61l2.257-.244a3.654,3.654,0,0,0,2.684-1.586,3.478,3.478,0,0,0,2.684,1.586l2.257.244a.6.6,0,0,1,.549.61v3.66a5.46,5.46,0,0,1-3.05,4.88Zm1.647,2.806-1.952.976a5.043,5.043,0,0,1-4.392,0l-1.952-.976.793-1.952a1.333,1.333,0,0,1,.3.183l.549.244a5.428,5.428,0,0,0,4.941,0l.549-.244a1.333,1.333,0,0,0,.3-.183Zm-4.7,14.334H15.32v-6.71H14.1v6.71H9.22V29.022a5.36,5.36,0,0,1,3.172-4.941l5.49-2.562-2.135,5.246,4.026,1.342,2.257,3.9Zm-1.4-10.248-3.294-1.1.732-1.83,1.83.915a6.072,6.072,0,0,0,5.429,0l1.83-.915.61,1.586H26.3a1.9,1.9,0,0,0-1.83,1.647l-1.83,3.233Zm9.333-.122a.576.576,0,0,1,.61.61v1.83a.576.576,0,0,1-.61.61h-.854l-.976.976-.976-.976H26.3a.576.576,0,0,1-.61-.61v-1.83a.576.576,0,0,1,.61-.61Zm-6.71,10.37V32.072l1.281-2.2a1.831,1.831,0,0,0,1.769,1.4h.366l1.464,1.464,1.464-1.464h.366a1.8,1.8,0,0,0,1.83-1.83v-1.83a1.8,1.8,0,0,0-1.83-1.83h-.793l-1.708-4.27,5.49,2.562a5.427,5.427,0,0,1,3.111,4.27,1.549,1.549,0,0,0-1.4.549l-.854.854a1.8,1.8,0,0,0-.427,1.891l.244.732-1.281,1.281-.732-.244a1.8,1.8,0,0,0-1.891.427l-.976.854a1.769,1.769,0,0,0,0,2.562c.061.061.122.122.183.122Zm14.09-5.185-4.819,4.819a1.478,1.478,0,0,1-1.83.183l-1.037-.671a.6.6,0,0,1-.183-.854c0-.061.061-.061.061-.122l.854-.854a.554.554,0,0,1,.427-.183.224.224,0,0,1,.183.061l1.464.488,2.379-2.379-.488-1.464a.667.667,0,0,1,.122-.61l.854-.854a.693.693,0,0,1,.488-.183.514.514,0,0,1,.427.244L37.279,31.4a.487.487,0,0,1,.061.793Z" transform="translate(1602.08 3395.419)" fill="#bb2636"/>
    <g id="manager" transform="translate(1607 3516.914)">
      <g id="Group_103" data-name="Group 103" transform="translate(15.966 27.571)">
        <g id="Group_102" data-name="Group 102">
          <path id="Path_99" data-name="Path 99" d="M227.425,377.329a.611.611,0,0,0-.853.131l-.075.1a.611.611,0,0,0,.983.724l.077-.1A.611.611,0,0,0,227.425,377.329Z" transform="translate(-226.377 -377.21)" fill="#bb2636"/>
        </g>
      </g>
      <g id="Group_105" data-name="Group 105" transform="translate(14.269 27.674)">
        <g id="Group_104" data-name="Group 104">
          <path id="Path_100" data-name="Path 100" d="M205.221,384.492l-1.57-2.855,1.466-2a.61.61,0,1,0-.984-.723l-1.7,2.311a.611.611,0,0,0-.043.656l1.758,3.2h0a.611.611,0,1,0,1.07-.588Z" transform="translate(-202.318 -378.668)" fill="#bb2636"/>
        </g>
      </g>
      <g id="Group_107" data-name="Group 107" transform="translate(18.873 27.684)">
        <g id="Group_106" data-name="Group 106">
          <path id="Path_101" data-name="Path 101" d="M270.441,381.355l-1.69-2.3a.611.611,0,0,0-.984.723l1.459,1.987-1.559,2.836a.611.611,0,1,0,1.07.589l1.748-3.177A.611.611,0,0,0,270.441,381.355Z" transform="translate(-267.591 -378.804)" fill="#bb2636"/>
        </g>
      </g>
      <g id="Group_109" data-name="Group 109" transform="translate(13.094 20.57)">
        <g id="Group_108" data-name="Group 108">
          <path id="Path_102" data-name="Path 102" d="M195.248,278.009a.611.611,0,0,0-.63.038,9.727,9.727,0,0,0-1,.788,4.3,4.3,0,0,1-3.265,1.276.6.6,0,0,0-.111-.007,6.2,6.2,0,0,1-3.059-1.549c-.189-.149-.384-.291-.578-.421a.61.61,0,0,0-.952.506v2.094a.611.611,0,0,0,.229.476.6.6,0,0,0,.053.038l4.329,2.893h0l.011.008a.611.611,0,0,0,.681,0l.006,0,.007,0,4.319-2.886c.017-.011.034-.023.051-.036a.61.61,0,0,0,.235-.481v-2.183A.61.61,0,0,0,195.248,278.009Zm-.895,2.4-3.741,2.5-3.741-2.5v-.555a6.677,6.677,0,0,0,3.343,1.474h.007a5.547,5.547,0,0,0,4.132-1.511v.593Z" transform="translate(-185.651 -277.939)" fill="#bb2636"/>
        </g>
      </g>
      <g id="Group_111" data-name="Group 111" transform="translate(16.042 25.66)">
        <g id="Group_110" data-name="Group 110">
          <path id="Path_103" data-name="Path 103" d="M230.062,350.62a.61.61,0,0,0-1.094-.261l-1.4,1.911a.611.611,0,1,0,.984.723l1.4-1.9a.61.61,0,0,0,.126-.371A.624.624,0,0,0,230.062,350.62Z" transform="translate(-227.446 -350.11)" fill="#bb2636"/>
        </g>
      </g>
      <g id="Group_113" data-name="Group 113" transform="translate(8.776 1.04)">
        <g id="Group_112" data-name="Group 112" transform="translate(0 0)">
          <path id="Path_104" data-name="Path 104" d="M143.015,6.487a3.919,3.919,0,0,0-2.241-2.974,2.1,2.1,0,0,0-.18-1.282,2.4,2.4,0,0,0-1.814-1.18.608.608,0,0,0-.116-.011h-8.195a6.041,6.041,0,0,0-6.035,6.035V10.29a3.684,3.684,0,0,0,.8,2.3,2.971,2.971,0,0,1,.621,1.724.611.611,0,0,0,1.22-.035V10.088a2.686,2.686,0,0,1,2.073-2.093H131.8a2.981,2.981,0,0,0,.911-.142c.5-.162,1.3-.459,1.886-.68a1.77,1.77,0,0,1,1.214-.015l2.838,1a2.6,2.6,0,0,1,1.7,1.964v5.031a.61.61,0,0,0,.565.608l.046,0a.611.611,0,0,0,.6-.52,8.628,8.628,0,0,1,1.032-2.851,2.736,2.736,0,0,0,.418-1.447V6.564A.612.612,0,0,0,143.015,6.487ZM141.8,10.941a1.514,1.514,0,0,1-.223.784V10.076a.606.606,0,0,0,0-.066,3.806,3.806,0,0,0-2.5-3l-.008,0-2.842-1a2.992,2.992,0,0,0-2.052.026c-.815.31-1.446.538-1.825.659a1.762,1.762,0,0,1-.539.083h-2.7a.621.621,0,0,0-.078.005,3.887,3.887,0,0,0-3.151,3.107.611.611,0,0,0-.015.133v1.257a2.481,2.481,0,0,1-.2-.984V7.075a4.819,4.819,0,0,1,4.814-4.814H138.6a1.3,1.3,0,0,1,.9.518,1.184,1.184,0,0,1-.027.872.61.61,0,0,0,.41.853A2.618,2.618,0,0,1,141.8,6.61v4.33Z" transform="translate(-124.434 -1.04)" fill="#bb2636"/>
        </g>
      </g>
      <g id="Group_115" data-name="Group 115" transform="translate(10.2 5.836)">
        <g id="Group_114" data-name="Group 114">
          <path id="Path_105" data-name="Path 105" d="M160.342,73.219a3.806,3.806,0,0,0-2.5-3l-.008,0-2.842-1a2.994,2.994,0,0,0-2.052.026c-.815.31-1.446.538-1.825.659a1.762,1.762,0,0,1-.539.083h-2.7a.622.622,0,0,0-.078.005,3.887,3.887,0,0,0-3.151,3.107.612.612,0,0,0-.015.133v5.249s0,.009,0,.014c0,.182.133,4.488,3.108,6.457l.015.011.039.027c.17.115.34.239.507.37.867.681,2.5,1.811,3.788,1.811h.007a3.38,3.38,0,0,0,.364.018,5.77,5.77,0,0,0,3.848-1.6,8.517,8.517,0,0,1,.876-.688l.046-.032.045-.031c.992-.667,2.711-2.386,3.072-6.416,0-.018,0-.036,0-.055V73.285A.645.645,0,0,0,160.342,73.219Zm-1.218,5.111c-.333,3.637-1.882,5.047-2.534,5.484l-.069.048-.034.024a9.729,9.729,0,0,0-1,.788,4.306,4.306,0,0,1-3.269,1.275.615.615,0,0,0-.107-.007,6.2,6.2,0,0,1-3.059-1.549c-.189-.149-.384-.291-.577-.421l-.015-.011-.046-.032c-2.4-1.589-2.558-5.307-2.563-5.463V73.3a2.685,2.685,0,0,1,2.072-2.093h2.652a2.981,2.981,0,0,0,.911-.142c.5-.162,1.3-.459,1.886-.68a1.77,1.77,0,0,1,1.214-.015l2.838,1a2.6,2.6,0,0,1,1.7,1.964v5Z" transform="translate(-144.628 -69.046)" fill="#bb2636"/>
        </g>
      </g>
      <g id="Group_117" data-name="Group 117" transform="translate(15.982 25.66)">
        <g id="Group_116" data-name="Group 116">
          <path id="Path_106" data-name="Path 106" d="M229.225,350.451a.611.611,0,0,0-1.038-.088l-1.463,1.992a.611.611,0,0,0,.984.724l1.463-1.985a.632.632,0,0,0,.119-.369A.611.611,0,0,0,229.225,350.451Z" transform="translate(-226.606 -350.113)" fill="#bb2636"/>
        </g>
      </g>
      <g id="Group_119" data-name="Group 119" transform="translate(17.449 35.639)">
        <g id="Group_118" data-name="Group 118">
          <path id="Path_107" data-name="Path 107" d="M248.6,491.791a.61.61,0,0,0-.853-.029l-.14.128a.61.61,0,0,0-.121.748l0,.008a.61.61,0,0,0,.449.307.619.619,0,0,0,.084.006.611.611,0,0,0,.432-.179l.135-.135A.61.61,0,0,0,248.6,491.791Z" transform="translate(-247.406 -491.602)" fill="#bb2636"/>
        </g>
      </g>
      <g id="Group_121" data-name="Group 121" transform="translate(17.301 35.639)">
        <g id="Group_120" data-name="Group 120">
          <path id="Path_108" data-name="Path 108" d="M246.463,491.89l-.14-.128a.611.611,0,0,0-.844.882l.135.135a.611.611,0,0,0,.967-.138l0-.008A.611.611,0,0,0,246.463,491.89Z" transform="translate(-245.301 -491.603)" fill="#bb2636"/>
        </g>
      </g>
      <g id="Group_123" data-name="Group 123" transform="translate(17.439 35.771)">
        <g id="Group_122" data-name="Group 122">
          <path id="Path_109" data-name="Path 109" d="M248.287,493.637h0a.611.611,0,0,0-.833,0l0,0a.611.611,0,0,0-.019.884l.006.006a.611.611,0,0,0,.862,0l.006-.006a.611.611,0,0,0-.02-.883Z" transform="translate(-247.252 -493.472)" fill="#bb2636"/>
        </g>
      </g>
      <g id="Group_125" data-name="Group 125" transform="translate(17.457 25.651)">
        <g id="Group_124" data-name="Group 124">
          <path id="Path_110" data-name="Path 110" d="M248.308,350.009a.61.61,0,1,0,.426.582h0A.61.61,0,0,0,248.308,350.009Z" transform="translate(-247.512 -349.981)" fill="#bb2636"/>
        </g>
      </g>
      <g id="Group_127" data-name="Group 127" transform="translate(17.445 25.649)">
        <g id="Group_126" data-name="Group 126">
          <path id="Path_111" data-name="Path 111" d="M248.45,350.215l-.005-.007a.611.611,0,0,0-1.1.363v.01a.612.612,0,0,0,.612.608.617.617,0,0,0,.341-.1.61.61,0,0,0,.154-.872Z" transform="translate(-247.343 -349.961)" fill="#bb2636"/>
        </g>
      </g>
      <g id="Group_129" data-name="Group 129" transform="translate(17.445 22.752)">
        <g id="Group_128" data-name="Group 128">
          <path id="Path_112" data-name="Path 112" d="M255.218,310.12a.61.61,0,0,0-.365-.359l-2.341-.839a.593.593,0,0,0-.058-.018.61.61,0,0,0-.487.085l-4.337,2.9,0,0,.341.506-.348-.5a.611.611,0,0,0-.155.871l3.176,4.325a.61.61,0,0,0,.492.249h.04a.61.61,0,0,0,.5-.315l3.516-6.393A.61.61,0,0,0,255.218,310.12Zm-4.161,5.477-2.232-3.04,3.565-2.382,1.378.494Z" transform="translate(-247.344 -308.887)" fill="#bb2636"/>
        </g>
      </g>
      <g id="Group_131" data-name="Group 131" transform="translate(10.753 22.753)">
        <g id="Group_130" data-name="Group 130">
          <path id="Path_113" data-name="Path 113" d="M160.366,312.3a.61.61,0,0,0-.261-.4l-4.352-2.908a.611.611,0,0,0-.472-.088.6.6,0,0,0-.074.021l-2.341.839a.61.61,0,0,0-.329.869l3.516,6.393a.611.611,0,0,0,.5.315h.04a.611.611,0,0,0,.492-.249l1.7-2.311,0-.006,1.475-2.009A.611.611,0,0,0,160.366,312.3Zm-2.572,1.758,0,.006-1.127,1.534-2.71-4.928,1.378-.494,3.565,2.382Z" transform="translate(-152.461 -308.889)" fill="#bb2636"/>
        </g>
      </g>
      <g id="Group_133" data-name="Group 133" transform="translate(17.454 23.592)">
        <g id="Group_132" data-name="Group 132">
          <path id="Path_114" data-name="Path 114" d="M266.093,331.6l-.788-4.756a4.21,4.21,0,0,0-2.719-3.268l-7.62-2.757a.611.611,0,0,0-.754.847l1.591,3.19-1.561.024a.611.611,0,0,0-.531.894l.64,1.223L247.8,333l-.02.019-.135.135a.61.61,0,0,0-.1.725l0,.009a.611.611,0,0,0,.536.318h15.811a2.231,2.231,0,0,0,2.2-2.6Zm-1.431,1.018a1.009,1.009,0,0,1-.771.357H249.626l5.9-5.394a.61.61,0,0,0,.129-.734l-.4-.761,1.539-.024a.611.611,0,0,0,.537-.883l-1.343-2.693,6.185,2.237a2.988,2.988,0,0,1,1.929,2.319l.788,4.756h0A1.008,1.008,0,0,1,264.663,332.622Z" transform="translate(-247.466 -320.787)" fill="#bb2636"/>
        </g>
      </g>
      <g id="Group_135" data-name="Group 135" transform="translate(17.445 35.777)">
        <g id="Group_134" data-name="Group 134">
          <path id="Path_115" data-name="Path 115" d="M248.377,493.72l-.007-.006a.611.611,0,0,0-.843.022l-.006.006a.611.611,0,0,0,.433,1.041h.013a.611.611,0,0,0,.41-1.063Z" transform="translate(-247.343 -493.556)" fill="#bb2636"/>
        </g>
      </g>
      <g id="Group_137" data-name="Group 137" transform="translate(17.436 35.767)">
        <g id="Group_136" data-name="Group 136">
          <path id="Path_116" data-name="Path 116" d="M248.243,493.57a.611.611,0,0,0-.944.16l0,.008a.611.611,0,0,0,.1.718l0,0a.61.61,0,0,0,.85.026l.006-.006a.611.611,0,0,0,.135-.178A.617.617,0,0,0,248.243,493.57Z" transform="translate(-247.22 -493.413)" fill="#bb2636"/>
        </g>
      </g>
      <g id="Group_139" data-name="Group 139" transform="translate(0 23.592)">
        <g id="Group_138" data-name="Group 138">
          <path id="Path_117" data-name="Path 117" d="M18.486,333.156l0,0,0,0-.135-.135-.02-.019L11.771,327l.64-1.223a.611.611,0,0,0-.531-.894l-1.561-.024,1.591-3.19a.611.611,0,0,0-.754-.847l-7.62,2.757a4.21,4.21,0,0,0-2.719,3.268L.03,331.6a2.231,2.231,0,0,0,2.2,2.6H18.056a.61.61,0,0,0,.43-1.043Zm-16.255-.178a1.01,1.01,0,0,1-1-1.175l.788-4.756a2.988,2.988,0,0,1,1.929-2.319l6.184-2.237-1.343,2.692a.611.611,0,0,0,.537.883l1.539.024-.4.761a.611.611,0,0,0,.129.734l5.9,5.394Z" transform="translate(0 -320.786)" fill="#bb2636"/>
        </g>
      </g>
      <g id="Group_141" data-name="Group 141" transform="translate(15.966 25.663)">
        <g id="Group_140" data-name="Group 140">
          <path id="Path_118" data-name="Path 118" d="M230.544,352.934a.611.611,0,0,0-.1-.509l-1.486-2.023a.611.611,0,0,0-1,.033l-1.459,1.979a.611.611,0,0,0-.01.712l.621.892-.662,4.171a.611.611,0,0,0,.068.39l1.418,2.577a.611.611,0,0,0,1.07,0l1.428-2.6a.611.611,0,0,0,.076-.294h0a.621.621,0,0,0-.008-.1l-.659-4.151.614-.882A.617.617,0,0,0,230.544,352.934Zm-2.078,6.66-.782-1.421.667-4.207a.61.61,0,0,0-.1-.445l-.512-.735.73-.99.734,1-.505.726a.611.611,0,0,0-.1.445l.664,4.188Z" transform="translate(-226.376 -350.155)" fill="#bb2636"/>
        </g>
      </g>
    </g>
  </g>
</svg>
