<svg xmlns="http://www.w3.org/2000/svg" width="93.034" height="47" viewBox="0 0 93.034 47"><defs><style>.a{fill:#9d9e9e;}.b{fill:#2e2e2d;}.c{fill:#b8212f;fill-rule:evenodd;}</style></defs><path class="a" d="M79.037,40.986v-.931H77.749v6.765h1.468V42.347a2.3,2.3,0,0,1,1.826-1.11,1.45,1.45,0,0,1,1.539,1.611v3.973h1.468V42.633a2.583,2.583,0,0,0-2.72-2.756,2.9,2.9,0,0,0-2.291,1.11M74.348,43.42a2.079,2.079,0,1,1-2.076-2.184A2.022,2.022,0,0,1,74.348,43.42Zm-5.62,0a3.58,3.58,0,1,0,3.58-3.544A3.406,3.406,0,0,0,68.728,43.42Zm-1.754-5.584a.895.895,0,1,0-.895.895A.808.808,0,0,0,66.974,37.836ZM66.8,46.785V40.02H65.327v6.765ZM59.6,38.015v2.04H58.419V41.38H59.6v3.365a2.04,2.04,0,0,0,2.255,2.219,5.143,5.143,0,0,0,1.754-.286V45.389a3.236,3.236,0,0,1-1.324.251c-.859,0-1.253-.286-1.253-1.181V41.38h2.4V40.056h-2.4v-2.4Zm-8.09,5.477A3.363,3.363,0,0,0,55.054,47a4.775,4.775,0,0,0,2.184-.465v-1.4a3.808,3.808,0,0,1-1.933.537,2.222,2.222,0,1,1,0-4.439,3.079,3.079,0,0,1,1.826.573v-1.36a3.858,3.858,0,0,0-2.04-.537A3.384,3.384,0,0,0,51.51,43.492Zm-3.365-3.436V44.53a2.3,2.3,0,0,1-1.826,1.11,1.418,1.418,0,0,1-1.539-1.611V40.056H43.313v4.188A2.547,2.547,0,0,0,46.034,47a3.01,3.01,0,0,0,2.291-1.11v.931h1.289V40.056Zm-9.092,1.11v-1.11H37.765v6.765h1.468V42.74a2.331,2.331,0,0,1,2.613-1.324V39.948A2.848,2.848,0,0,0,39.053,41.165Zm-6.98-3.15v2.04H30.892V41.38h1.181v3.365a2.04,2.04,0,0,0,2.255,2.219,5.143,5.143,0,0,0,1.754-.286V45.389a3.236,3.236,0,0,1-1.324.251c-.859,0-1.253-.286-1.253-1.181V41.38h2.4V40.056H33.5v-2.4Zm-7.732,3.866c0,2.434,3.973,1.9,3.973,3.15,0,.537-.609.68-1.432.68A4.742,4.742,0,0,1,24.377,45V46.32a5.18,5.18,0,0,0,2.577.644c1.5,0,2.828-.5,2.828-1.969,0-2.47-3.973-1.861-3.973-3.15,0-.537.644-.716,1.217-.716a4.758,4.758,0,0,1,2.291.644V40.449a5.349,5.349,0,0,0-2.363-.573C25.666,39.877,24.341,40.414,24.341,41.881Zm-6.873-.895v-.931H16.18v6.765h1.468V42.347a2.3,2.3,0,0,1,1.826-1.11,1.45,1.45,0,0,1,1.539,1.611v3.973H22.48V42.633a2.583,2.583,0,0,0-2.72-2.756A2.9,2.9,0,0,0,17.468,40.986ZM12.779,43.42A2.022,2.022,0,0,1,10.7,45.6a2.186,2.186,0,0,1,0-4.367A2.022,2.022,0,0,1,12.779,43.42Zm-5.656,0a3.406,3.406,0,0,0,3.58,3.544,3.544,3.544,0,1,0,0-7.088A3.425,3.425,0,0,0,7.123,43.42ZM0,43.492A3.363,3.363,0,0,0,3.544,47a4.775,4.775,0,0,0,2.184-.465v-1.4a3.808,3.808,0,0,1-1.933.537,2.222,2.222,0,1,1,0-4.439,3.079,3.079,0,0,1,1.826.573v-1.36a3.858,3.858,0,0,0-2.04-.537A3.367,3.367,0,0,0,0,43.492Z"/><path class="b" d="M69.193,32.682V23.733h3.544l5.978,8.949h5.19l-7.517-11.24,7.123-10.7H78.286l-5.548,8.7H69.193v-8.7H64.5V32.682ZM44.53,16.538c0,7.768,11.992,6.228,11.992,10.345,0,1.575-1.575,2.112-4.117,2.112a13.875,13.875,0,0,1-7.768-2.327v4.474a16.842,16.842,0,0,0,8.126,1.969c4.618,0,8.555-1.539,8.555-6.443,0-7.8-11.992-6.407-11.992-10.2,0-1.36,1.181-2,3.58-2.04a11.8,11.8,0,0,1,6.765,1.933V11.992a14.959,14.959,0,0,0-7.123-1.682C48.253,10.273,44.53,12.314,44.53,16.538Zm-12.958.286a7.237,7.237,0,0,0,.5-1.718,9.142,9.142,0,0,0,.465,1.718L35.617,24.7H28.529ZM25.415,32.682l1.647-4.117H37.085L38.7,32.682h4.868L34.615,10.739H29.532L20.583,32.682ZM5.405,14.855H9.951c1.969,0,3.687.859,3.687,3.114,0,2.219-1.718,3.114-3.687,3.114H5.405Zm0,17.826v-7.7H8.842l5.906,7.7h5.405l-6.515-8.269a6.364,6.364,0,0,0,4.8-6.515c0-5.548-4.439-7.159-8.7-7.159H.68V32.682H5.405Z"/><path class="c" d="M85.91,21.442H80.935l7.195-10.989L81.328,0H86.34l6.694,10.452Z"/></svg>