<?xml version="1.0" encoding="utf-8"?>
<!-- Generator: Adobe Illustrator 23.1.0, SVG Export Plug-In . SVG Version: 6.00 Build 0)  -->
<svg version="1.1" id="Слой_1" xmlns="http://www.w3.org/2000/svg" xmlns:xlink="http://www.w3.org/1999/xlink" x="0px" y="0px"
	 viewBox="0 0 96.9 97" style="enable-background:new 0 0 96.9 97;" xml:space="preserve">
<style type="text/css">
	.st0{fill:#F5DFE1;}
	.st1{fill:#BB2636;}
</style>
<g id="_2" transform="translate(-717.001 -1356.07)">
	<circle id="Ellipse_12" class="st0" cx="765.8" cy="1404.8" r="41.5"/>
	<g id="круг" transform="translate(800.953 1353) rotate(60)">
		<path id="Path_9" class="st1" d="M-16.9,39.5c-0.6,0-1.1-0.5-1.1-1.1c0-0.1,0-0.3,0.1-0.4C-7.7,13.3,20.6,1.5,45.3,11.7
			c5.9,2.4,11.3,6,15.8,10.6c0.4,0.4,0.3,1.1-0.1,1.5c-0.4,0.4-1,0.4-1.4,0C41.6,5.6,12.2,5.6-5.9,23.7c-4.3,4.3-7.8,9.5-10.1,15.1
			C-16.1,39.3-16.5,39.5-16.9,39.5z"/>
		<path id="Path_10" class="st1" d="M26.9,105c-26.8,0-48.5-21.7-48.5-48.5c0,0,0,0,0,0c0-3.8,0.4-7.5,1.3-11.2
			c0.1-0.6,0.7-0.9,1.3-0.8c0.6,0.1,0.9,0.7,0.8,1.3c-5.9,24.9,9.6,49.9,34.5,55.8c3.5,0.8,7,1.2,10.6,1.2c6.7,0,13.2-1.4,19.3-4.2
			c0.5-0.2,1.2,0,1.4,0.5c0.2,0.5,0,1.2-0.5,1.4C40.7,103.5,33.9,105,26.9,105z"/>
		<path id="Path_11" class="st1" d="M53.7,96.7c-0.6,0-1.1-0.5-1.1-1.1c0-0.3,0.2-0.7,0.5-0.9c2.3-1.6,4.5-3.4,6.5-5.4
			c0.4-0.4,1.1-0.3,1.5,0.1c0.4,0.4,0.4,1,0,1.4c-2.1,2.1-4.4,4-6.8,5.7C54.2,96.6,54,96.7,53.7,96.7z"/>
		<path id="Path_12" class="st1" d="M65.3,85.4c-0.6,0-1.1-0.5-1.1-1.1c0-0.2,0.1-0.4,0.2-0.6c11.5-15.8,11.8-37.2,0.8-53.3
			c-0.3-0.5-0.2-1.1,0.3-1.5c0.5-0.3,1.1-0.2,1.5,0.3l0,0C78.5,46.1,78.2,68.4,66.1,85C65.9,85.3,65.6,85.4,65.3,85.4z"/>
	</g>
	<g id="noun_protected_1668852" transform="translate(763 1397)">
		<g id="Group_9">
			<g id="Group_8">
				<path id="Path_13" class="st1" d="M4.4-11.1l-2.1-1.3l-2.1,1.3c-4.1,2.5-11.1,6.4-15.9,6.4c0.3,11.2,3.1,19.6,7.6,25.3
					c3.4,4.3,7.7,6.7,10.4,6.7s7-2.4,10.4-6.7c4.5-5.7,7.3-14.1,7.6-25.3C15.5-4.7,8.5-8.6,4.4-11.1z M-17.7-6.7h2
					c4.4,0,11.1-3.8,14.9-6.1l3.1-1.9l3.1,1.9c3.8,2.3,10.4,6.1,14.9,6.1h2c0,28-14.7,36-20,36S-17.7,21.3-17.7-6.7z M-2.8,7.1
					l-1.5,1.4l5.8,6.1l9.6-14.5L9.4-1L1.2,11.4L-2.8,7.1z"/>
			</g>
		</g>
	</g>
</g>
</svg>
