<svg xmlns="http://www.w3.org/2000/svg" width="909" height="80" viewBox="0 0 909 80">
  <g id="_6" data-name="6" transform="translate(-530 -3692)">
    <path id="Path_119" data-name="Path 119" d="M293.2,3190.892v902.48" transform="translate(4625 3439) rotate(90)" fill="none" stroke="rgba(187,38,54,0.35)" stroke-width="2" stroke-dasharray="2 2"/>
    <circle id="Ellipse_34" data-name="Ellipse 34" cx="40" cy="40" r="40" transform="translate(1055 3692) rotate(90)" fill="#f5dfe1"/>
    <circle id="Ellipse_37" data-name="Ellipse 37" cx="40" cy="40" r="40" transform="translate(1175 3692) rotate(90)" fill="#f5dfe1"/>
    <circle id="Ellipse_38" data-name="Ellipse 38" cx="40" cy="40" r="40" transform="translate(1295 3692) rotate(90)" fill="#f5dfe1"/>
    <circle id="Ellipse_35" data-name="Ellipse 35" cx="40" cy="40" r="40" transform="translate(935 3692) rotate(90)" fill="#f5dfe1"/>
    <circle id="Ellipse_36" data-name="Ellipse 36" cx="40" cy="40" r="40" transform="translate(815 3692) rotate(90)" fill="#f5dfe1"/>
    <g id="Ellipse_33" data-name="Ellipse 33" transform="translate(1439 3728) rotate(90)" fill="#fff" stroke="#bb2636" stroke-width="1">
      <circle cx="4" cy="4" r="4" stroke="none"/>
      <circle cx="4" cy="4" r="3.5" fill="none"/>
    </g>
    <g id="bus-stop_1_" data-name="bus-stop (1)" transform="translate(878 3710.501)">
      <path id="Path_122" data-name="Path 122" d="M293.269,253.283h-5.406a.5.5,0,1,0,0,.99h5.406a.5.5,0,1,0,0-.99Z" transform="translate(-268.537 -231.547)" fill="#bb2636"/>
      <path id="Path_123" data-name="Path 123" d="M124,182.8h5.259a.5.5,0,1,0,0-.99H124a.5.5,0,0,0,0,.99Z" transform="translate(-115.413 -164.753)" fill="#bb2636"/>
      <path id="Path_124" data-name="Path 124" d="M124,219.483h5.259a.5.5,0,1,0,0-.99H124a.5.5,0,1,0,0,.99Z" transform="translate(-115.413 -199.037)" fill="#bb2636"/>
      <path id="Path_125" data-name="Path 125" d="M129.26,255.18H124a.5.5,0,0,0,0,.99h5.259a.5.5,0,1,0,0-.99Z" transform="translate(-115.413 -233.32)" fill="#bb2636"/>
      <path id="Path_126" data-name="Path 126" d="M288.606,181.4h3.919a1.24,1.24,0,0,0,1.24-1.237v-1.312a1.24,1.24,0,0,0-1.24-1.237h-3.919a1.239,1.239,0,0,0-1.238,1.237v1.312A1.239,1.239,0,0,0,288.606,181.4Zm-.248-2.549a.25.25,0,0,1,.248-.247h3.919a.251.251,0,0,1,.249.247v1.312a.251.251,0,0,1-.249.247h-3.919a.25.25,0,0,1-.248-.247Z" transform="translate(-268.537 -160.837)" fill="#bb2636"/>
      <path id="Path_127" data-name="Path 127" d="M31.884,35H30.96V10.248h1a1.313,1.313,0,0,0,1.312-1.311V7.873A2.378,2.378,0,0,0,30.892,5.5H2.376A2.378,2.378,0,0,0,0,7.873V8.936a1.313,1.313,0,0,0,1.312,1.311h1V35H1.947a1.666,1.666,0,1,0,0,3.332H31.884a1.666,1.666,0,1,0,0-3.332ZM29.97,35H27.989V10.248H29.97Zm-5.123,0V31.13a1.677,1.677,0,0,0-.51-3.274H17.72a.5.5,0,1,0,0,.99h6.617a.686.686,0,1,1,0,1.373H9.121a.686.686,0,1,1,0-1.373h6.331a.5.5,0,1,0,0-.99H9.121a1.677,1.677,0,0,0-.51,3.274V35H6.272V25.012H27V35Zm-2.137,0V31.21h1.147V35ZM11.741,35V31.21h9.978V35ZM9.6,35V31.21h1.149V35ZM27,15.7v8.322H17.131V15.7ZM16.14,24.022H6.272V15.7H16.14ZM.99,8.936V7.873A1.387,1.387,0,0,1,2.376,6.489H30.892a1.387,1.387,0,0,1,1.386,1.384V8.936a.326.326,0,0,1-.322.321H17.642a.5.5,0,1,0,0,.99H27v4.461H6.272V10.248h9.061a.5.5,0,1,0,0-.99H1.312A.326.326,0,0,1,.99,8.936ZM3.3,10.248H5.282V35H3.3ZM31.884,37.339H1.947a.675.675,0,1,1,0-1.351H31.884a.675.675,0,1,1,0,1.351Z" fill="#bb2636"/>
    </g>
    <g id="bus-stop" transform="translate(905.867 3713)">
      <g id="Group_145" data-name="Group 145" transform="translate(98.133 1)">
        <g id="Group_144" data-name="Group 144">
          <path id="Path_128" data-name="Path 128" d="M119.852,2.81H107.786a.6.6,0,0,0-.6.6v3.62h-2.413V2.81a1.81,1.81,0,0,0-3.62,0V33.579A3.017,3.017,0,0,0,98.133,36.6a.6.6,0,0,0,.6.6h8.446a.6.6,0,0,0,.6-.6,3.017,3.017,0,0,0-3.017-3.017V19.1h2.413v3.62a.6.6,0,0,0,.6.6h12.066a.6.6,0,0,0,.6-.6V3.413A.6.6,0,0,0,119.852,2.81ZM106.476,35.992H99.443a1.811,1.811,0,0,1,1.707-1.207h3.62A1.811,1.811,0,0,1,106.476,35.992Zm-4.12-2.413V2.81a.6.6,0,0,1,1.207,0V33.579Zm2.413-15.686V8.24h2.413v9.653Zm14.48,4.223h-10.86V4.016h10.86Z" transform="translate(-98.133 -1)" fill="#bb2636"/>
        </g>
      </g>
    </g>
    <g id="billboard_1_" data-name="billboard (1)" transform="translate(678 3715)">
      <g id="Group_151" data-name="Group 151" transform="translate(86)">
        <g id="Group_150" data-name="Group 150">
          <path id="Path_131" data-name="Path 131" d="M106.1,0H87.945A1.947,1.947,0,0,0,86,1.945V25.288a1.947,1.947,0,0,0,1.945,1.945h3.242V31.9H89.242a.648.648,0,1,0,0,1.3H104.8a.648.648,0,0,0,0-1.3h-1.945V27.234H106.1a1.947,1.947,0,0,0,1.945-1.945V1.945A1.947,1.947,0,0,0,106.1,0Zm-4.539,31.9H92.484V27.234h9.078Zm5.187-6.614a.649.649,0,0,1-.648.648H87.945a.649.649,0,0,1-.648-.648V1.945a.649.649,0,0,1,.648-.648H106.1a.649.649,0,0,1,.648.648Z" transform="translate(-86 0)" fill="#bb2636"/>
        </g>
      </g>
      <g id="Group_153" data-name="Group 153" transform="translate(88.594 2.594)">
        <g id="Group_152" data-name="Group 152" transform="translate(0)">
          <path id="Path_132" data-name="Path 132" d="M142.21,40H126.648a.648.648,0,0,0-.648.648V61.4a.648.648,0,0,0,.648.648H142.21a.648.648,0,0,0,.648-.648V40.648A.648.648,0,0,0,142.21,40Zm-.648,20.749H127.3V41.3h14.265Z" transform="translate(-126 -40)" fill="#bb2636"/>
        </g>
      </g>
    </g>
    <g id="Конструкция" transform="translate(1010.996 3640.6)">
      <path id="Path_19" data-name="Path 19" d="M131.617,138.619a.41.41,0,0,1-.053-.817l2.222-.288.987-1.728L124,134.258l-10.779,1.522,1.193,1.775,1.875.241a.409.409,0,0,1-.106.811l-2.063-.264a.427.427,0,0,1-.288-.176l-1.657-2.474a.413.413,0,0,1,.282-.641l11.49-1.622a.392.392,0,0,1,.118,0l11.425,1.622a.407.407,0,0,1,.311.229.43.43,0,0,1-.012.388L134.4,138.1a.418.418,0,0,1-.306.206l-2.427.317A.114.114,0,0,0,131.617,138.619Z" transform="translate(-0.094 -58.38)" fill="#bb2636"/>
      <path id="Path_20" data-name="Path 20" d="M113.58,105.308a.4.4,0,0,1-.341-.182l-1.164-1.734a.413.413,0,0,1,.282-.641l11.49-1.622a.393.393,0,0,1,.118,0l11.431,1.628a.407.407,0,0,1,.311.229.43.43,0,0,1-.012.388l-.94,1.646a.413.413,0,0,1-.717-.411l.641-1.117-10.773-1.528-10.779,1.522.793,1.187a.408.408,0,0,1-.112.57A.45.45,0,0,1,113.58,105.308Z" transform="translate(0 -27.978)" fill="#bb2636"/>
      <path id="Path_21" data-name="Path 21" d="M213.167,74.721a.408.408,0,0,1-.335-.641A6.965,6.965,0,0,1,218.6,71.4a7.053,7.053,0,0,1,5.683,2.551.412.412,0,1,1-.664.488,6.22,6.22,0,0,0-5.019-2.216,6.138,6.138,0,0,0-5.1,2.322A.413.413,0,0,1,213.167,74.721Z" transform="translate(-94.832)" fill="#bb2636"/>
      <path id="Path_22" data-name="Path 22" d="M189.31,169.426a.412.412,0,0,1-.223-.758c.259-.165.347-.306.347-.376,0-.141-.353-.588-1.981-1a23.2,23.2,0,0,0-5.425-.57,22.892,22.892,0,0,0-5.425.57c-1.622.411-1.981.864-1.981,1,0,.071.082.2.323.359a.411.411,0,0,1-.458.682,1.3,1.3,0,0,1-.688-1.04c0-1.646,4.261-2.392,8.222-2.392s8.222.746,8.222,2.392a1.308,1.308,0,0,1-.723,1.07A.375.375,0,0,1,189.31,169.426Z" transform="translate(-58.163 -88.946)" fill="#bb2636"/>
      <path id="Path_23" data-name="Path 23" d="M195.446,189.4a.409.409,0,0,1-.411-.411c0-.206-.5-.635-1.869-1.005a23.665,23.665,0,0,0-10.273,0c-1.369.364-1.869.8-1.869,1.005a.411.411,0,0,1-.823,0c0-.752.835-1.358,2.48-1.8a24.444,24.444,0,0,1,10.708,0c1.646.441,2.48,1.046,2.48,1.8A.427.427,0,0,1,195.446,189.4Z" transform="translate(-64.187 -108.429)" fill="#bb2636"/>
      <path id="Path_24" data-name="Path 24" d="M182.122,572.83c-3.961,0-8.222-.746-8.222-2.392a.941.941,0,0,1,.482-.835.41.41,0,0,1,.429.7c-.088.053-.088.094-.088.135,0,.141.353.588,1.981,1a23.207,23.207,0,0,0,5.425.57,22.928,22.928,0,0,0,5.425-.57c1.622-.411,1.981-.864,1.981-1a.473.473,0,0,0-.2-.27.409.409,0,0,1,.517-.635,1.171,1.171,0,0,1,.505.911C190.345,572.078,186.084,572.83,182.122,572.83Z" transform="translate(-58.257 -468.77)" fill="#bb2636"/>
      <path id="Path_25" data-name="Path 25" d="M182.122,615.9c-3.961,0-8.222-.746-8.222-2.392a.411.411,0,0,1,.823,0c0,.141.353.588,1.981,1a23.208,23.208,0,0,0,5.425.57,22.929,22.929,0,0,0,5.425-.57c1.622-.411,1.981-.864,1.981-1a.411.411,0,0,1,.823,0C190.345,615.151,186.084,615.9,182.122,615.9Z" transform="translate(-58.257 -509.863)" fill="#bb2636"/>
      <path id="Path_26" data-name="Path 26" d="M182.122,673.985c-3.961,0-8.222-.746-8.222-2.392a1.142,1.142,0,0,1,.482-.887.413.413,0,1,1,.529.635c-.118.1-.188.194-.188.259,0,.141.353.588,1.981,1a23.2,23.2,0,0,0,5.425.57,22.925,22.925,0,0,0,5.425-.57c1.622-.411,1.981-.864,1.981-1,0-.071-.076-.17-.2-.27a.409.409,0,1,1,.517-.635,1.179,1.179,0,0,1,.505.911C190.345,673.232,186.084,673.985,182.122,673.985Z" transform="translate(-58.257 -563.983)" fill="#bb2636"/>
      <path id="Path_27" data-name="Path 27" d="M182.122,700.1c-3.961,0-8.222-.746-8.222-2.392a.411.411,0,0,1,.823,0c0,.141.353.588,1.981,1a23.2,23.2,0,0,0,5.425.57,22.9,22.9,0,0,0,5.425-.57c1.622-.411,1.981-.864,1.981-1a.411.411,0,0,1,.823,0C190.345,699.351,186.084,700.1,182.122,700.1Z" transform="translate(-58.257 -589.114)" fill="#bb2636"/>
      <path id="Path_28" data-name="Path 28" d="M174.311,681.275a.409.409,0,0,1-.411-.411v-1.052a.411.411,0,1,1,.823,0v1.052A.417.417,0,0,1,174.311,681.275Z" transform="translate(-58.257 -572.266)" fill="#bb2636"/>
      <path id="Path_29" data-name="Path 29" d="M174.311,584.221a.409.409,0,0,1-.411-.411v-1.9a.411.411,0,0,1,.823,0v1.9A.417.417,0,0,1,174.311,584.221Z" transform="translate(-58.257 -480.12)" fill="#bb2636"/>
      <path id="Path_30" data-name="Path 30" d="M440.111,584.221a.409.409,0,0,1-.411-.411v-1.9a.411.411,0,0,1,.823,0v1.9A.413.413,0,0,1,440.111,584.221Z" transform="translate(-308.436 -480.12)" fill="#bb2636"/>
      <path id="Path_31" data-name="Path 31" d="M180.611,629.755a.409.409,0,0,1-.411-.411v-3.532a.411.411,0,1,1,.823,0v3.532A.417.417,0,0,1,180.611,629.755Z" transform="translate(-64.187 -521.44)" fill="#bb2636"/>
      <path id="Path_32" data-name="Path 32" d="M433.011,629.931a.409.409,0,0,1-.411-.411v-3.709a.411.411,0,1,1,.823,0v3.709A.409.409,0,0,1,433.011,629.931Z" transform="translate(-301.753 -521.44)" fill="#bb2636"/>
      <path id="Path_33" data-name="Path 33" d="M440.111,682.528a.409.409,0,0,1-.411-.411v-.9a.411.411,0,1,1,.823,0v.9A.409.409,0,0,1,440.111,682.528Z" transform="translate(-308.436 -573.584)" fill="#bb2636"/>
      <path id="Path_34" data-name="Path 34" d="M180.611,242.7a.409.409,0,0,1-.411-.411V220.711a.411.411,0,1,1,.823,0v21.575A.413.413,0,0,1,180.611,242.7Z" transform="translate(-64.187 -140.149)" fill="#bb2636"/>
      <path id="Path_35" data-name="Path 35" d="M433.011,242.816a.409.409,0,0,1-.411-.411V220.711a.411.411,0,1,1,.823,0V242.4A.409.409,0,0,1,433.011,242.816Z" transform="translate(-301.753 -140.149)" fill="#bb2636"/>
      <path id="Path_36" data-name="Path 36" d="M420.411,230.715A.409.409,0,0,1,420,230.3V207.511a.411.411,0,0,1,.823,0V230.3A.409.409,0,0,1,420.411,230.715Z" transform="translate(-289.894 -127.725)" fill="#bb2636"/>
      <path id="Path_37" data-name="Path 37" d="M192.911,230.5a.409.409,0,0,1-.411-.411V207.511a.411.411,0,1,1,.823,0v22.575A.409.409,0,0,1,192.911,230.5Z" transform="translate(-75.764 -127.725)" fill="#bb2636"/>
    </g>
    <g id="billboard_2_" data-name="billboard (2)" transform="translate(1235 3712.23)">
      <g id="Group_155" data-name="Group 155">
        <g id="Group_154" data-name="Group 154">
          <path id="Path_133" data-name="Path 133" d="M38.125,2.844H30.56V1.21h.787a.572.572,0,0,0,.605-.605A.572.572,0,0,0,31.347,0H28.624a.572.572,0,0,0-.605.605.572.572,0,0,0,.605.605h.787V2.844H25.6V1.21h.787A.572.572,0,0,0,26.99.605.572.572,0,0,0,26.385,0H23.6A.572.572,0,0,0,23,.605a.572.572,0,0,0,.605.605h.787V2.844H20.575V1.21h.787a.572.572,0,0,0,.605-.605A.572.572,0,0,0,21.362,0H18.639a.572.572,0,0,0-.605.605.572.572,0,0,0,.605.605h.726V2.844H15.552V1.21h.787a.572.572,0,0,0,.605-.605A.572.572,0,0,0,16.339,0H13.616a.572.572,0,0,0-.605.605.572.572,0,0,0,.605.605H14.4V2.844H10.59V1.21h.787a.572.572,0,0,0,.605-.605A.572.572,0,0,0,11.377,0H8.654a.572.572,0,0,0-.605.605.572.572,0,0,0,.605.605H9.44V2.844H1.815A1.821,1.821,0,0,0,0,4.66V26.324A1.821,1.821,0,0,0,1.815,28.14H15.794V35.4H11.2a.572.572,0,0,0-.605.605v3.328a.572.572,0,0,0,.605.605H28.684a.572.572,0,0,0,.605-.605V36.007a.572.572,0,0,0-.605-.605h-4.6V28.14h14.04a1.821,1.821,0,0,0,1.815-1.815V4.66A1.82,1.82,0,0,0,38.125,2.844ZM28.14,36.612V38.73H11.861V36.612ZM17,35.4V28.14h5.93V35.4ZM38.73,26.324a.606.606,0,0,1-.605.605H1.755a.606.606,0,0,1-.605-.605V4.66a.606.606,0,0,1,.605-.605h36.37a.606.606,0,0,1,.605.605Z" fill="#bb2636"/>
          <path id="Path_134" data-name="Path 134" d="M70.93,71.529H38.252a.572.572,0,0,0-.605.605V90.349a.572.572,0,0,0,.605.605H70.93a.572.572,0,0,0,.605-.605V72.134A.606.606,0,0,0,70.93,71.529ZM70.325,89.8H38.857V72.739H70.325Z" transform="translate(-34.621 -65.78)" fill="#bb2636"/>
        </g>
      </g>
    </g>
    <g id="Ellipse_39" data-name="Ellipse 39" transform="translate(538 3728) rotate(90)" fill="#fff" stroke="#bb2636" stroke-width="1">
      <circle cx="4" cy="4" r="4" stroke="none"/>
      <circle cx="4" cy="4" r="3.5" fill="none"/>
    </g>
  </g>
</svg>
