<?xml version="1.0" encoding="utf-8"?>
<!-- Generator: Adobe Illustrator 23.1.0, SVG Export Plug-In . SVG Version: 6.00 Build 0)  -->
<svg version="1.1" id="Слой_1" xmlns="http://www.w3.org/2000/svg" xmlns:xlink="http://www.w3.org/1999/xlink" x="0px" y="0px"
	 viewBox="0 0 96.9 97" style="enable-background:new 0 0 96.9 97;" xml:space="preserve">
<style type="text/css">
	.st0{fill:#F5DFE1;}
	.st1{fill:#BB2636;}
</style>
<g id="Group_237" transform="translate(-717.001 -1613.07)">
	<g id="_5">
		<circle id="Ellipse_15" class="st0" cx="765.8" cy="1661.8" r="41.5"/>
		<g id="круг" transform="translate(800.953 1610) rotate(60)">
			<path id="Path_9" class="st1" d="M-16.9,39.5c-0.6,0-1.1-0.5-1.1-1.1c0-0.1,0-0.3,0.1-0.4C-7.7,13.3,20.6,1.5,45.3,11.7
				c5.9,2.4,11.3,6,15.8,10.6c0.4,0.4,0.3,1.1-0.1,1.5c-0.4,0.4-1,0.4-1.4,0C41.6,5.6,12.2,5.6-5.9,23.7c-4.3,4.3-7.8,9.5-10.1,15.1
				C-16.1,39.3-16.5,39.5-16.9,39.5z"/>
			<path id="Path_10" class="st1" d="M26.9,105c-26.8,0-48.5-21.7-48.5-48.5c0,0,0,0,0,0c0-3.8,0.4-7.5,1.3-11.2
				c0.1-0.6,0.7-0.9,1.3-0.8c0.6,0.1,0.9,0.7,0.8,1.3c-5.9,24.9,9.6,49.9,34.5,55.8c3.5,0.8,7,1.2,10.6,1.2c6.7,0,13.2-1.4,19.3-4.2
				c0.5-0.2,1.2,0,1.4,0.5c0.2,0.5,0,1.2-0.5,1.4C40.7,103.5,33.9,105,26.9,105z"/>
			<path id="Path_11" class="st1" d="M53.7,96.7c-0.6,0-1.1-0.5-1.1-1.1c0-0.3,0.2-0.7,0.5-0.9c2.3-1.6,4.5-3.4,6.5-5.4
				c0.4-0.4,1.1-0.3,1.5,0.1c0.4,0.4,0.4,1,0,1.4c-2.1,2.1-4.4,4-6.8,5.7C54.2,96.6,54,96.7,53.7,96.7z"/>
			<path id="Path_12" class="st1" d="M65.3,85.4c-0.6,0-1.1-0.5-1.1-1.1c0-0.2,0.1-0.4,0.2-0.6c11.5-15.8,11.8-37.2,0.8-53.3
				c-0.3-0.5-0.2-1.1,0.3-1.5c0.5-0.3,1.1-0.2,1.5,0.3l0,0C78.5,46.1,78.2,68.4,66.1,85C65.9,85.3,65.6,85.4,65.3,85.4z"/>
		</g>
		<g id="Конструкция" transform="translate(652.863 1573.439)">
			<path id="Path_19" class="st1" d="M125.1,70.7c-0.4,0-0.6-0.3-0.6-0.7c0-0.3,0.2-0.6,0.6-0.6l3.5-0.5l1.6-2.7l-17-2.4l-17,2.4
				l1.9,2.8l3,0.4c0.4,0.1,0.6,0.4,0.5,0.7c-0.1,0.3-0.4,0.6-0.7,0.5l-3.3-0.4c-0.2,0-0.3-0.1-0.5-0.3l-2.6-3.9
				c-0.2-0.3-0.1-0.7,0.2-0.9c0.1-0.1,0.2-0.1,0.3-0.1l18.1-2.6c0.1,0,0.1,0,0.2,0l18,2.6c0.2,0,0.4,0.2,0.5,0.4
				c0.1,0.2,0.1,0.4,0,0.6l-2.2,3.8c-0.1,0.2-0.3,0.3-0.5,0.3L125.1,70.7C125.1,70.7,125.1,70.7,125.1,70.7z"/>
			<path id="Path_20" class="st1" d="M96.8,66.1c-0.2,0-0.4-0.1-0.5-0.3l-1.8-2.7c-0.2-0.3-0.1-0.7,0.2-0.9c0.1-0.1,0.2-0.1,0.3-0.1
				l18.1-2.6c0.1,0,0.1,0,0.2,0l18.1,2.6c0.2,0,0.4,0.2,0.5,0.4c0.1,0.2,0.1,0.4,0,0.6l-1.5,2.6c-0.2,0.3-0.6,0.4-0.9,0.3
				s-0.4-0.6-0.3-0.9c0,0,0,0,0,0l1-1.8l-17-2.4l-17,2.4l1.3,1.9c0.2,0.3,0.1,0.7-0.2,0.9c0,0,0,0,0,0C97,66.1,96.9,66.1,96.8,66.1z
				"/>
			<path id="Path_21" class="st1" d="M104.3,62c-0.4,0-0.6-0.3-0.6-0.6c0-0.1,0-0.3,0.1-0.4c1.8-2.6,5.3-4.2,9.1-4.2
				c3.7,0,7.2,1.5,9,4c0.2,0.3,0.2,0.7-0.1,0.9s-0.7,0.2-0.9-0.1c0,0,0,0,0,0c-1.6-2.2-4.6-3.5-7.9-3.5c-3.4,0-6.5,1.4-8,3.7
				C104.7,61.9,104.5,62,104.3,62z"/>
			<path id="Path_22" class="st1" d="M124.5,71.1c-0.4,0-0.7-0.3-0.7-0.6c0-0.2,0.1-0.4,0.3-0.6c0.4-0.3,0.5-0.5,0.5-0.6
				c0-0.2-0.6-0.9-3.1-1.6c-2.8-0.6-5.7-0.9-8.6-0.9c-2.9,0-5.8,0.3-8.6,0.9c-2.6,0.6-3.1,1.4-3.1,1.6c0,0.1,0.1,0.3,0.5,0.6
				c0.3,0.2,0.4,0.6,0.1,0.9c-0.2,0.3-0.6,0.3-0.9,0.2c-0.6-0.3-1-0.9-1.1-1.6c0-2.6,6.7-3.8,13-3.8s13,1.2,13,3.8
				c-0.1,0.7-0.5,1.4-1.1,1.7C124.7,71,124.6,71.1,124.5,71.1z"/>
			<path id="Path_23" class="st1" d="M124.7,71.9c-0.4,0-0.6-0.3-0.6-0.6c0,0,0,0,0,0c0-0.3-0.8-1-3-1.6c-5.3-1.2-10.9-1.2-16.2,0
				c-2.2,0.6-3,1.3-3,1.6c0,0.4-0.3,0.7-0.7,0.7c-0.4,0-0.6-0.3-0.6-0.7c0-1.2,1.3-2.1,3.9-2.8c5.6-1.2,11.3-1.2,16.9,0
				c2.6,0.7,3.9,1.7,3.9,2.8C125.3,71.6,125,71.9,124.7,71.9z"/>
			<path id="Path_24" class="st1" d="M113,108.3c-6.3,0-13-1.2-13-3.8c0-0.5,0.3-1.1,0.8-1.3c0.3-0.2,0.7,0,0.9,0.3
				c0.1,0.3,0.1,0.6-0.2,0.8c-0.1,0.1-0.1,0.1-0.1,0.2c0,0.2,0.6,0.9,3.1,1.6c2.8,0.6,5.7,0.9,8.6,0.9c2.9,0,5.8-0.3,8.6-0.9
				c2.6-0.7,3.1-1.4,3.1-1.6c0-0.2-0.2-0.3-0.3-0.4c-0.3-0.2-0.3-0.6-0.1-0.9c0.2-0.3,0.6-0.3,0.9-0.1c0.5,0.3,0.8,0.9,0.8,1.4
				C126,107.1,119.3,108.3,113,108.3z"/>
			<path id="Path_25" class="st1" d="M113,111.4c-6.3,0-13-1.2-13-3.8c0-0.4,0.3-0.7,0.6-0.7c0.4,0,0.7,0.3,0.7,0.7l0,0
				c0,0.2,0.6,0.9,3.1,1.6c2.8,0.6,5.7,0.9,8.6,0.9c2.9,0,5.8-0.3,8.6-0.9c2.6-0.7,3.1-1.4,3.1-1.6c0-0.4,0.3-0.7,0.6-0.7
				c0.4,0,0.7,0.3,0.7,0.7l0,0C126,110.3,119.3,111.4,113,111.4z"/>
			<path id="Path_26" class="st1" d="M113,117.7c-6.3,0-13-1.2-13-3.8c0-0.6,0.3-1.1,0.8-1.4c0.3-0.2,0.7-0.2,0.9,0
				c0.2,0.3,0.2,0.7,0,0.9c0,0,0,0,0,0c-0.2,0.2-0.3,0.3-0.3,0.4c0,0.2,0.6,0.9,3.1,1.6c2.8,0.6,5.7,0.9,8.6,0.9
				c2.9,0,5.8-0.3,8.6-0.9c2.6-0.7,3.1-1.4,3.1-1.6c0-0.1-0.1-0.3-0.3-0.4c-0.3-0.2-0.3-0.6-0.1-0.9s0.6-0.3,0.9-0.1c0,0,0,0,0,0
				c0.5,0.3,0.8,0.9,0.8,1.4C126,116.5,119.3,117.7,113,117.7z"/>
			<path id="Path_27" class="st1" d="M113,119.3c-6.3,0-13-1.2-13-3.8c0-0.4,0.3-0.7,0.6-0.7c0.4,0,0.7,0.3,0.7,0.7
				c0,0.2,0.6,0.9,3.1,1.6c2.8,0.6,5.7,0.9,8.6,0.9c2.9,0,5.8-0.3,8.6-0.9c2.6-0.7,3.1-1.4,3.1-1.6c0-0.4,0.3-0.7,0.6-0.7
				c0.4,0,0.7,0.3,0.7,0.7C126,118.1,119.3,119.3,113,119.3z"/>
			<path id="Path_28" class="st1" d="M100.7,116.1c-0.4,0-0.6-0.3-0.6-0.6c0,0,0,0,0,0v-1.7c0-0.4,0.3-0.7,0.7-0.7
				c0.4,0,0.6,0.3,0.6,0.7l0,0v1.7C101.3,115.8,101,116.1,100.7,116.1z"/>
			<path id="Path_29" class="st1" d="M100.7,108.4c-0.4,0-0.6-0.3-0.6-0.6c0,0,0,0,0,0v-3c0-0.4,0.3-0.7,0.7-0.7
				c0.4,0,0.6,0.3,0.6,0.7l0,0v3C101.3,108.1,101,108.4,100.7,108.4z"/>
			<path id="Path_30" class="st1" d="M125.3,108.4c-0.4,0-0.6-0.3-0.6-0.6c0,0,0,0,0,0v-3c0-0.4,0.3-0.6,0.7-0.6
				c0.4,0,0.6,0.3,0.6,0.6v3C126,108.1,125.7,108.4,125.3,108.4z"/>
			<path id="Path_31" class="st1" d="M101.3,115c-0.4,0-0.6-0.3-0.6-0.6c0,0,0,0,0,0v-5.6c0-0.4,0.3-0.7,0.6-0.7
				c0.4,0,0.7,0.3,0.7,0.7v5.6C101.9,114.7,101.6,115,101.3,115z"/>
			<path id="Path_32" class="st1" d="M124.7,115.3c-0.4,0-0.6-0.3-0.6-0.6c0,0,0,0,0,0v-5.9c0-0.4,0.3-0.7,0.6-0.7
				c0.4,0,0.7,0.3,0.7,0.6c0,0,0,0,0,0v5.9C125.3,115,125,115.3,124.7,115.3C124.7,115.3,124.7,115.3,124.7,115.3z"/>
			<path id="Path_33" class="st1" d="M125.3,116c-0.4,0-0.6-0.3-0.6-0.6c0,0,0,0,0,0v-1.4c0-0.4,0.3-0.6,0.7-0.6
				c0.4,0,0.6,0.3,0.6,0.6v1.4C126,115.7,125.7,116,125.3,116C125.3,116,125.3,116,125.3,116z"/>
			<path id="Path_34" class="st1" d="M101.3,105.9c-0.4,0-0.6-0.3-0.6-0.6c0,0,0,0,0,0V71.2c0-0.4,0.3-0.7,0.6-0.7
				c0.4,0,0.7,0.3,0.7,0.7v34.1C101.9,105.6,101.6,105.9,101.3,105.9z"/>
			<path id="Path_35" class="st1" d="M124.7,106.1c-0.4,0-0.6-0.3-0.6-0.6c0,0,0,0,0,0V71.2c0-0.4,0.3-0.6,0.7-0.6
				c0.4,0,0.6,0.3,0.6,0.6v34.3C125.3,105.8,125,106.1,124.7,106.1C124.7,106.1,124.7,106.1,124.7,106.1z"/>
			<path id="Path_36" class="st1" d="M123.5,106.6c-0.4,0-0.6-0.3-0.6-0.6c0,0,0,0,0,0V70c0-0.4,0.3-0.7,0.6-0.7s0.7,0.3,0.7,0.6
				c0,0,0,0,0,0v36C124.2,106.3,123.9,106.6,123.5,106.6C123.5,106.6,123.5,106.6,123.5,106.6z"/>
			<path id="Path_37" class="st1" d="M102.4,106.3c-0.4,0-0.6-0.3-0.6-0.6c0,0,0,0,0,0V70c0-0.4,0.3-0.7,0.6-0.7
				c0.4,0,0.7,0.3,0.7,0.7l0,0v35.6C103,106,102.8,106.3,102.4,106.3C102.4,106.3,102.4,106.3,102.4,106.3z"/>
		</g>
	</g>
</g>
</svg>
