<svg xmlns="http://www.w3.org/2000/svg" width="96.94" height="96.94" viewBox="0 0 96.94 96.94">
  <g id="_1" data-name="1" transform="translate(-255 -1371)">
    <circle id="Ellipse_11" data-name="Ellipse 11" cx="41.5" cy="41.5" r="41.5" transform="translate(262 1378)" fill="#f5dfe1"/>
    <g id="noun_plywood_1590168" transform="translate(281 1399)">
      <path id="Path_8" data-name="Path 8" d="M25.106,16.719l-5.56,2.66a.41.41,0,0,0,.354.74l5.56-2.66a.41.41,0,0,0-.354-.74Zm10.2,2.82-3.707,1.773a.41.41,0,0,0,.176.78.422.422,0,0,0,.178-.04l3.707-1.773a.41.41,0,0,0-.354-.74ZM49.273,24.5a.82.82,0,0,0-.466-.74l-5.236-2.5,5.236-2.5a.82.82,0,0,0,0-1.479L27.491,7.08a.823.823,0,0,0-.708,0L5.467,17.275a.82.82,0,0,0,0,1.479l5.236,2.5-5.236,2.5a.82.82,0,0,0,0,1.479l5.236,2.5-5.236,2.5a.821.821,0,0,0,0,1.481l5.236,2.5-5.236,2.5a.821.821,0,0,0,0,1.48l21.317,10.2a.825.825,0,0,0,.354.08.813.813,0,0,0,.354-.08l21.317-10.2a.819.819,0,0,0,0-1.478l-5.236-2.506,5.236-2.5a.82.82,0,0,0,0-1.479l-5.236-2.5,5.236-2.5A.824.824,0,0,0,49.273,24.5ZM27.136,8.728l3.316,1.586L18.623,15.79a.41.41,0,0,0,.344.744l12.445-5.76,6.644,3.177L32.52,16.6a.41.41,0,0,0,.177.78.419.419,0,0,0,.177-.04l6.132-2.932,3.233,1.546L39.47,17.275a.41.41,0,0,0,.177.78.416.416,0,0,0,.177-.04l3.365-1.609,3.364,1.609L27.136,27.3,20.71,24.228l8.743-4.135a.41.41,0,1,0-.351-.741l-9.346,4.421L12.34,20.225l3.311-1.584a.41.41,0,1,0-.354-.74L11.59,19.674a.4.4,0,0,0-.144.122L7.721,18.015Zm19.418,28.75L27.136,46.764,7.72,37.479,12.6,35.144l14.18,6.781a.825.825,0,0,0,.354.08.813.813,0,0,0,.354-.08l14.18-6.781Zm0-6.488L27.136,40.276,7.72,30.99,12.6,28.655l14.18,6.781a.826.826,0,0,0,.354.081.814.814,0,0,0,.354-.081l14.18-6.781Zm-19.418,2.8L7.72,24.5,12.6,22.168l14.18,6.781a.826.826,0,0,0,.354.081.814.814,0,0,0,.354-.081l14.181-6.781L46.554,24.5Zm.927-18.225a.41.41,0,0,1-.177-.78l3.707-1.773a.41.41,0,1,1,.354.74l-3.707,1.773A.416.416,0,0,1,28.064,15.564Z" transform="translate(-5 -7)" fill="#bb2636"/>
    </g>
    <g id="круг" transform="translate(255 1371)">
      <path id="Path_9" data-name="Path 9" d="M17.74,31.511a1.063,1.063,0,0,1-.983-1.467A48.482,48.482,0,0,1,95.875,14.2a1.063,1.063,0,0,1-1.5,1.5A46.357,46.357,0,0,0,18.724,30.852,1.063,1.063,0,0,1,17.74,31.511Z" transform="translate(-13.132)" fill="#bb2636"/>
      <path id="Path_10" data-name="Path 10" d="M48.47,232.015A48.469,48.469,0,0,1,0,183.545a48.7,48.7,0,0,1,1.3-11.183,1.063,1.063,0,1,1,2.069.489,46.386,46.386,0,0,0,45.1,57.039,45.968,45.968,0,0,0,19.27-4.184,1.063,1.063,0,0,1,.885,1.933A48.079,48.079,0,0,1,48.47,232.015Z" transform="translate(0 -135.075)" fill="#bb2636"/>
      <path id="Path_11" data-name="Path 11" d="M350.238,388.38a1.063,1.063,0,0,1-.6-1.939,46.67,46.67,0,0,0,6.55-5.449,1.063,1.063,0,0,1,1.5,1.5,48.825,48.825,0,0,1-6.849,5.7A1.059,1.059,0,0,1,350.238,388.38Z" transform="translate(-274.944 -299.753)" fill="#bb2636"/>
      <path id="Path_12" data-name="Path 12" d="M404.534,154.021a1.063,1.063,0,0,1-.859-1.688,46.366,46.366,0,0,0,.783-53.345,1.063,1.063,0,0,1,1.755-1.2,48.492,48.492,0,0,1-.819,55.795A1.062,1.062,0,0,1,404.534,154.021Z" transform="translate(-317.699 -76.635)" fill="#bb2636"/>
    </g>
  </g>
</svg>
