<svg xmlns="http://www.w3.org/2000/svg" width="113" height="137" viewBox="0 0 113 137">
  <g id="_4" data-name="4" transform="translate(-971 -3201)">
    <path id="Path_88" data-name="Path 88" d="M1095,3205h-68.88v67.708" transform="translate(-15)" fill="none" stroke="rgba(187,38,54,0.35)" stroke-width="2" stroke-dasharray="2 2"/>
    <g id="Ellipse_27" data-name="Ellipse 27" transform="translate(1076 3201)" fill="#fff" stroke="#bb2636" stroke-width="1">
      <circle cx="4" cy="4" r="4" stroke="none"/>
      <circle cx="4" cy="4" r="3.5" fill="none"/>
    </g>
    <circle id="Ellipse_28" data-name="Ellipse 28" cx="40" cy="40" r="40" transform="translate(971 3258)" fill="#f5dfe1"/>
    <g id="skyline" transform="translate(996 3283)">
      <g id="Group_47" data-name="Group 47" transform="translate(0 28.968)">
        <g id="Group_46" data-name="Group 46">
          <path id="Path_89" data-name="Path 89" d="M0,490.666v.63a.63.63,0,0,0,.63.63H29.6a.63.63,0,0,0,.63-.63v-.63H0Z" transform="translate(0 -490.666)" fill="#bb2636"/>
        </g>
      </g>
      <g id="Group_49" data-name="Group 49" transform="translate(1.259 11.335)">
        <g id="Group_48" data-name="Group 48">
          <path id="Path_90" data-name="Path 90" d="M32.039,192H21.963a.63.63,0,0,0-.63.63v17.633a.63.63,0,0,0,.63.63H32.039a.63.63,0,0,0,.63-.63V192.63A.63.63,0,0,0,32.039,192Zm-.63,17.633H22.593V193.259h8.816Z" transform="translate(-21.333 -192)" fill="#bb2636"/>
        </g>
      </g>
      <g id="Group_51" data-name="Group 51" transform="translate(17.633 3.778)">
        <g id="Group_50" data-name="Group 50">
          <path id="Path_91" data-name="Path 91" d="M309.372,64H299.3a.63.63,0,0,0-.63.63v25.19a.63.63,0,0,0,.63.63h10.076a.63.63,0,0,0,.63-.63V64.63A.63.63,0,0,0,309.372,64Zm-.63,25.19h-8.816V65.259h8.816Z" transform="translate(-298.666 -64)" fill="#bb2636"/>
        </g>
      </g>
      <g id="Group_53" data-name="Group 53" transform="translate(6.297)">
        <g id="Group_52" data-name="Group 52">
          <path id="Path_92" data-name="Path 92" d="M124.3,0h-17a.63.63,0,0,0-.63.63v9.446h1.26V1.259h15.744V2.519h1.259V.63A.63.63,0,0,0,124.3,0Z" transform="translate(-106.666 0)" fill="#bb2636"/>
        </g>
      </g>
      <g id="Group_55" data-name="Group 55" transform="translate(3.778 13.854)">
        <g id="Group_54" data-name="Group 54">
          <rect id="Rectangle_62" data-name="Rectangle 62" width="1.259" height="11.335" fill="#bb2636"/>
        </g>
      </g>
      <g id="Group_57" data-name="Group 57" transform="translate(6.297 13.854)">
        <g id="Group_56" data-name="Group 56">
          <rect id="Rectangle_63" data-name="Rectangle 63" width="1.259" height="11.335" fill="#bb2636"/>
        </g>
      </g>
      <g id="Group_59" data-name="Group 59" transform="translate(8.816 13.854)">
        <g id="Group_58" data-name="Group 58">
          <rect id="Rectangle_64" data-name="Rectangle 64" width="1.259" height="11.335" fill="#bb2636"/>
        </g>
      </g>
      <g id="Group_61" data-name="Group 61" transform="translate(18.262 6.927)">
        <g id="Group_60" data-name="Group 60">
          <rect id="Rectangle_65" data-name="Rectangle 65" width="6.927" height="1.259" fill="#bb2636"/>
        </g>
      </g>
      <g id="Group_63" data-name="Group 63" transform="translate(18.262 10.076)">
        <g id="Group_62" data-name="Group 62">
          <rect id="Rectangle_66" data-name="Rectangle 66" width="6.927" height="1.259" fill="#bb2636"/>
        </g>
      </g>
      <g id="Group_65" data-name="Group 65" transform="translate(18.262 13.225)">
        <g id="Group_64" data-name="Group 64">
          <rect id="Rectangle_67" data-name="Rectangle 67" width="6.927" height="1.259" fill="#bb2636"/>
        </g>
      </g>
      <g id="Group_67" data-name="Group 67" transform="translate(18.262 16.373)">
        <g id="Group_66" data-name="Group 66">
          <rect id="Rectangle_68" data-name="Rectangle 68" width="6.927" height="1.259" fill="#bb2636"/>
        </g>
      </g>
      <g id="Group_69" data-name="Group 69" transform="translate(18.262 19.522)">
        <g id="Group_68" data-name="Group 68">
          <rect id="Rectangle_69" data-name="Rectangle 69" width="6.927" height="1.259" fill="#bb2636"/>
        </g>
      </g>
      <g id="Group_71" data-name="Group 71" transform="translate(18.262 22.671)">
        <g id="Group_70" data-name="Group 70">
          <rect id="Rectangle_70" data-name="Rectangle 70" width="6.927" height="1.259" fill="#bb2636"/>
        </g>
      </g>
      <g id="Group_73" data-name="Group 73" transform="translate(9.446 3.149)">
        <g id="Group_72" data-name="Group 72">
          <rect id="Rectangle_71" data-name="Rectangle 71" width="1.259" height="1.889" fill="#bb2636"/>
        </g>
      </g>
      <g id="Group_75" data-name="Group 75" transform="translate(9.446 6.927)">
        <g id="Group_74" data-name="Group 74">
          <rect id="Rectangle_72" data-name="Rectangle 72" width="1.259" height="1.889" fill="#bb2636"/>
        </g>
      </g>
      <g id="Group_77" data-name="Group 77" transform="translate(11.965 6.927)">
        <g id="Group_76" data-name="Group 76">
          <rect id="Rectangle_73" data-name="Rectangle 73" width="1.259" height="1.889" fill="#bb2636"/>
        </g>
      </g>
      <g id="Group_79" data-name="Group 79" transform="translate(11.965 3.149)">
        <g id="Group_78" data-name="Group 78">
          <rect id="Rectangle_74" data-name="Rectangle 74" width="1.259" height="1.889" fill="#bb2636"/>
        </g>
      </g>
      <g id="Group_81" data-name="Group 81" transform="translate(14.484 3.149)">
        <g id="Group_80" data-name="Group 80">
          <rect id="Rectangle_75" data-name="Rectangle 75" width="1.259" height="1.889" fill="#bb2636"/>
        </g>
      </g>
      <g id="Group_83" data-name="Group 83" transform="translate(14.484 6.927)">
        <g id="Group_82" data-name="Group 82">
          <rect id="Rectangle_76" data-name="Rectangle 76" width="1.259" height="1.889" fill="#bb2636"/>
        </g>
      </g>
      <g id="Group_85" data-name="Group 85" transform="translate(14.484 10.706)">
        <g id="Group_84" data-name="Group 84">
          <rect id="Rectangle_77" data-name="Rectangle 77" width="1.259" height="1.889" fill="#bb2636"/>
        </g>
      </g>
      <g id="Group_87" data-name="Group 87" transform="translate(14.484 14.484)">
        <g id="Group_86" data-name="Group 86">
          <rect id="Rectangle_78" data-name="Rectangle 78" width="1.259" height="1.889" fill="#bb2636"/>
        </g>
      </g>
      <g id="Group_89" data-name="Group 89" transform="translate(14.484 18.262)">
        <g id="Group_88" data-name="Group 88">
          <rect id="Rectangle_79" data-name="Rectangle 79" width="1.259" height="1.889" fill="#bb2636"/>
        </g>
      </g>
      <g id="Group_91" data-name="Group 91" transform="translate(14.484 22.041)">
        <g id="Group_90" data-name="Group 90">
          <rect id="Rectangle_80" data-name="Rectangle 80" width="1.259" height="1.889" fill="#bb2636"/>
        </g>
      </g>
      <g id="Group_93" data-name="Group 93" transform="translate(20.152 25.819)">
        <g id="Group_92" data-name="Group 92">
          <path id="Path_93" data-name="Path 93" d="M345.111,437.333h-3.149a.63.63,0,0,0-.63.63v3.149h1.259v-2.519h1.889v2.519h1.26v-3.149A.63.63,0,0,0,345.111,437.333Z" transform="translate(-341.333 -437.333)" fill="#bb2636"/>
        </g>
      </g>
      <g id="Group_95" data-name="Group 95" transform="translate(3.778 26.449)">
        <g id="Group_94" data-name="Group 94">
          <path id="Path_94" data-name="Path 94" d="M69.668,448H64.63a.63.63,0,0,0-.63.63v2.519h1.259v-1.889h3.778v1.889H70.3V448.63A.63.63,0,0,0,69.668,448Z" transform="translate(-64 -448)" fill="#bb2636"/>
        </g>
      </g>
    </g>
  </g>
</svg>
