<?xml version="1.0" encoding="utf-8"?>
<!-- Generator: Adobe Illustrator 23.1.0, SVG Export Plug-In . SVG Version: 6.00 Build 0)  -->
<svg version="1.1" id="Слой_1" xmlns="http://www.w3.org/2000/svg" xmlns:xlink="http://www.w3.org/1999/xlink" x="0px" y="0px"
	 viewBox="0 0 96.9 97" style="enable-background:new 0 0 96.9 97;" xml:space="preserve">
<style type="text/css">
	.st0{fill:#F5DFE1;}
	.st1{fill:#BB2636;}
</style>
<g id="_6" transform="translate(-1203.943 -1619.777)">
	<circle id="Ellipse_16" class="st0" cx="1251.7" cy="1668.5" r="41.5"/>
	<g id="круг" transform="translate(1245.471 1742.423) rotate(-120)">
		<path id="Path_9" class="st1" d="M16.9,26.1c-0.6,0-1.1-0.5-1.1-1.1c0-0.1,0-0.3,0.1-0.4C26.1-0.1,54.4-11.9,79.2-1.7
			c5.9,2.4,11.3,6,15.8,10.6c0.4,0.4,0.3,1.1-0.1,1.5c-0.4,0.4-1,0.4-1.4,0C75.4-7.8,46.1-7.8,28,10.3c-4.3,4.3-7.8,9.5-10.1,15.1
			C17.7,25.9,17.3,26.1,16.9,26.1z"/>
		<path id="Path_10" class="st1" d="M60.8,91.6c-26.8,0-48.5-21.7-48.5-48.5c0,0,0,0,0,0c0-3.8,0.4-7.5,1.3-11.2
			c0.1-0.6,0.7-0.9,1.3-0.8c0.6,0.1,0.9,0.7,0.8,1.3c-5.9,24.9,9.6,49.9,34.5,55.8c3.5,0.8,7,1.2,10.6,1.2c6.7,0,13.2-1.4,19.3-4.2
			c0.5-0.2,1.2,0,1.4,0.5c0.2,0.5,0,1.2-0.5,1.4C74.6,90.1,67.7,91.6,60.8,91.6z"/>
		<path id="Path_11" class="st1" d="M87.6,83.3c-0.6,0-1.1-0.5-1.1-1.1c0-0.3,0.2-0.7,0.5-0.9c2.3-1.6,4.5-3.4,6.5-5.4
			c0.4-0.4,1.1-0.3,1.5,0.1c0.4,0.4,0.4,1,0,1.4c-2.1,2.1-4.4,4-6.8,5.7C88,83.2,87.8,83.3,87.6,83.3z"/>
		<path id="Path_12" class="st1" d="M99.1,72c-0.6,0-1.1-0.5-1.1-1.1c0-0.2,0.1-0.4,0.2-0.6c11.5-15.8,11.8-37.2,0.8-53.3
			c-0.3-0.5-0.2-1.1,0.3-1.5c0.5-0.3,1.1-0.2,1.5,0.3l0,0C112.3,32.7,112,55,100,71.6C99.8,71.8,99.5,72,99.1,72z"/>
	</g>
	<g id="noun_Call_Center_1800719" transform="translate(1239 1651.992)">
		<g id="_20-Contact_and_communicate">
			<path id="Path_38" class="st1" d="M32.9,2.3l-1.6,1.2c7,10,4.5,23.7-5.4,30.6c-7.6,5.3-17.6,5.3-25.2,0l-1.2,1.6
				c10.9,7.6,25.8,5,33.4-5.9C38.6,21.5,38.6,10.5,32.9,2.3z"/>
			<path id="Path_39" class="st1" d="M-2.4,0.5C5.2-7.1,17.1-8.1,25.8-2l1.2-1.6c-10.9-7.6-25.8-5-33.4,5.9
				c-5.8,8.3-5.8,19.3,0,27.5l1.6-1.2C-11,19.9-9.9,8-2.4,0.5z"/>
			<path id="Path_40" class="st1" d="M15.3,29.5c3.1,3.1,8.2,3.1,11.3,0l2.1-2.1c1.6-1.6,1.6-4.1,0-5.7l-2.8-2.8
				c-1.6-1.6-4-1.8-5.9-0.5l-1.8,1.3L9.6,11l1.3-1.8c1.3-1.8,1.1-4.3-0.5-5.9L7.5,0.5C6-1.1,3.4-1.1,1.9,0.5l-2.1,2.1
				c-3.1,3.1-3.1,8.2,0,11.3L15.3,29.5z M1.2,4l2.1-2.1c0.8-0.8,2-0.8,2.8,0L9,4.7C9.8,5.6,10,7,9.2,8l-1.8,2.5
				c-0.3,0.4-0.2,0.9,0.1,1.3l9.9,9.9c0.3,0.3,0.9,0.4,1.3,0.1l2.5-1.8l0,0c1-0.7,2.4-0.6,3.3,0.3l2.8,2.8c0.8,0.8,0.8,2,0,2.8
				l-2.1,2.1c-2.3,2.3-6.1,2.3-8.5,0L1.2,12.5C-1.2,10.2-1.2,6.4,1.2,4z"/>
		</g>
	</g>
</g>
</svg>
