<svg xmlns="http://www.w3.org/2000/svg" xmlns:xlink="http://www.w3.org/1999/xlink" width="135" height="21.655" viewBox="0 0 135 21.655">
  <defs>
    <clipPath id="clip-path">
      <rect width="135" height="21.655" fill="none"/>
    </clipPath>
  </defs>
  <g id="grid_3" data-name="grid 3" opacity="0.18" clip-path="url(#clip-path)">
    <g transform="translate(-1425 -5030)">
      <path id="Path_139" data-name="Path 139" d="M0,0H13L-8,21.655H-21Z" transform="translate(1446 5030)" fill="#bbbbba"/>
    </g>
    <g transform="translate(-1400 -5030)">
      <path id="Path_139-2" data-name="Path 139" d="M0,0H13L-8,21.655H-21Z" transform="translate(1446 5030)" fill="#bbbbba"/>
    </g>
    <g transform="translate(-1375 -5030)">
      <path id="Path_139-3" data-name="Path 139" d="M0,0H13L-8,21.655H-21Z" transform="translate(1446 5030)" fill="#bbbbba"/>
    </g>
    <g transform="translate(-1350 -5030)">
      <path id="Path_139-4" data-name="Path 139" d="M0,0H13L-8,21.655H-21Z" transform="translate(1446 5030)" fill="#bbbbba"/>
    </g>
    <g transform="translate(-1325 -5030)">
      <path id="Path_139-5" data-name="Path 139" d="M0,0H13L-8,21.655H-21Z" transform="translate(1446 5030)" fill="#bbbbba"/>
    </g>
    <g transform="translate(-1300 -5030)">
      <path id="Path_139-6" data-name="Path 139" d="M0,0H13L-8,21.655H-21Z" transform="translate(1446 5030)" fill="#bbbbba"/>
    </g>
  </g>
</svg>
