<svg id="vk_mini" data-name="vk mini" xmlns="http://www.w3.org/2000/svg" width="18.083" height="18.083" viewBox="0 0 18.083 18.083">
  <path id="Path_6" data-name="Path 6" d="M10.016,9.966A2.1,2.1,0,0,0,9,9.8H7.921v2.215h.987a2.032,2.032,0,0,0,1.146-.195,1.15,1.15,0,0,0,.453-.94A1.129,1.129,0,0,0,10.016,9.966ZM9.611,8.074a1.03,1.03,0,0,0,.365-.806.933.933,0,0,0-.428-.806,2.645,2.645,0,0,0-1.158-.13H7.921v1.95h.62A1.7,1.7,0,0,0,9.611,8.074ZM14.9,0H3.178A3.179,3.179,0,0,0,0,3.179V14.9a3.179,3.179,0,0,0,3.178,3.179H14.9A3.179,3.179,0,0,0,18.083,14.9V3.179A3.179,3.179,0,0,0,14.9,0ZM9.532,13.663H5.838V4.747H9.874A2.09,2.09,0,0,1,12.122,6.8a1.9,1.9,0,0,1-1.288,1.923v.026a2.029,2.029,0,0,1,1.835,2.2C12.669,12.256,11.785,13.663,9.532,13.663Z" fill="#939494"/>
</svg>
