<svg xmlns="http://www.w3.org/2000/svg" width="32" height="32" viewBox="0 0 32 32"><defs><style>.a{fill:#939494;}</style></defs><path class="a" d="M17.725,17.636a3.711,3.711,0,0,0-1.805-.3h-1.9v3.92h1.746a3.6,3.6,0,0,0,2.028-.345,2.034,2.034,0,0,0,.8-1.664A2,2,0,0,0,17.725,17.636Zm-.718-3.348a1.823,1.823,0,0,0,.645-1.426,1.65,1.65,0,0,0-.757-1.426,4.68,4.68,0,0,0-2.05-.23h-.829v3.45h1.1A3.011,3.011,0,0,0,17.007,14.288ZM26.375,0H5.624A5.625,5.625,0,0,0,0,5.625v20.75A5.625,5.625,0,0,0,5.624,32H26.375A5.626,5.626,0,0,0,32,26.375V5.625A5.625,5.625,0,0,0,26.375,0ZM16.868,24.178H10.331V8.4h7.143a3.7,3.7,0,0,1,3.978,3.64,3.357,3.357,0,0,1-2.279,3.4v.046a3.591,3.591,0,0,1,3.247,3.9C22.419,21.689,20.855,24.178,16.868,24.178Z"/></svg>